<svg width="26" height="25" viewBox="0 0 26 25" fill="none" xmlns="http://www.w3.org/2000/svg">
<path fill-rule="evenodd" clip-rule="evenodd" d="M0.407715 12.5C0.407715 5.625 6.07598 0 13.0039 0C19.9318 0 25.6 5.625 25.6 12.5C25.6 19.375 19.9318 25 13.0039 25C6.07598 25 0.407715 19.375 0.407715 12.5ZM13 4.66667C13.7667 4.66667 20.3333 4.73333 20.3333 7V7.1V17C20.3333 19.2667 13.7667 19.3333 13 19.3333C12.2333 19.3333 5.66667 19.2667 5.66667 17V7C5.66667 4.73333 12.2333 4.66667 13 4.66667ZM13 11.3333C16.4667 11.3333 18.6667 10.6667 19 10.2667V8.46667C17.0333 9.3 13.5333 9.33333 13 9.33333C12.4667 9.33333 8.96667 9.3 7 8.46667V10.2667C7.33333 10.6667 9.53333 11.3333 13 11.3333ZM13 14.6667C16.4667 14.6667 18.6667 14 19 13.6V11.8C17.0333 12.6333 13.5333 12.6667 13 12.6667C12.4667 12.6667 8.96667 12.6333 7 11.8V13.6C7.33333 14 9.53333 14.6667 13 14.6667ZM18.9333 7C18.4333 6.6 16.2667 6 13 6C9.73333 6 7.56667 6.6 7.06667 7C7.56667 7.4 9.73333 8 13 8C16.2667 8 18.4333 7.4 18.9333 7ZM7 16.9333C7.33333 17.3333 9.53333 18 13 18C16.4667 18 18.6667 17.3333 19 16.9333V15.1333C17.0333 15.9667 13.5333 16 13 16C12.4667 16 8.96667 15.9667 7 15.1333V16.9333Z" fill="#89969F"/>
</svg>
