<?xml version="1.0" standalone="yes"?><svg xmlns="http://www.w3.org/2000/svg" version="1.1" width="291" height="291" viewBox="0 0 291 291" shape-rendering="crispEdges"><rect x="0" y="0" width="291" height="291" fill="#ffffff"/><path fill="#000000" d="M12 12h3v3H12V12M15 12h3v3H15V12M18 12h3v3H18V12M21 12h3v3H21V12M24 12h3v3H24V12M27 12h3v3H27V12M30 12h3v3H30V12M36 12h3v3H36V12M39 12h3v3H39V12M45 12h3v3H45V12M48 12h3v3H48V12M57 12h3v3H57V12M72 12h3v3H72V12M75 12h3v3H75V12M81 12h3v3H81V12M87 12h3v3H87V12M102 12h3v3H102V12M105 12h3v3H105V12M108 12h3v3H108V12M117 12h3v3H117V12M120 12h3v3H120V12M123 12h3v3H123V12M129 12h3v3H129V12M132 12h3v3H132V12M138 12h3v3H138V12M141 12h3v3H141V12M144 12h3v3H144V12M156 12h3v3H156V12M159 12h3v3H159V12M162 12h3v3H162V12M171 12h3v3H171V12M174 12h3v3H174V12M186 12h3v3H186V12M192 12h3v3H192V12M198 12h3v3H198V12M201 12h3v3H201V12M204 12h3v3H204V12M207 12h3v3H207V12M216 12h3v3H216V12M234 12h3v3H234V12M246 12h3v3H246V12M249 12h3v3H249V12M252 12h3v3H252V12M258 12h3v3H258V12M261 12h3v3H261V12M264 12h3v3H264V12M267 12h3v3H267V12M270 12h3v3H270V12M273 12h3v3H273V12M276 12h3v3H276V12M12 15h3v3H12V15M30 15h3v3H30V15M39 15h3v3H39V15M42 15h3v3H42V15M45 15h3v3H45V15M51 15h3v3H51V15M60 15h3v3H60V15M63 15h3v3H63V15M69 15h3v3H69V15M78 15h3v3H78V15M90 15h3v3H90V15M102 15h3v3H102V15M105 15h3v3H105V15M108 15h3v3H108V15M111 15h3v3H111V15M120 15h3v3H120V15M123 15h3v3H123V15M126 15h3v3H126V15M129 15h3v3H129V15M138 15h3v3H138V15M156 15h3v3H156V15M159 15h3v3H159V15M162 15h3v3H162V15M165 15h3v3H165V15M168 15h3v3H168V15M177 15h3v3H177V15M180 15h3v3H180V15M183 15h3v3H183V15M195 15h3v3H195V15M201 15h3v3H201V15M207 15h3v3H207V15M228 15h3v3H228V15M240 15h3v3H240V15M249 15h3v3H249V15M258 15h3v3H258V15M276 15h3v3H276V15M12 18h3v3H12V18M18 18h3v3H18V18M21 18h3v3H21V18M24 18h3v3H24V18M30 18h3v3H30V18M48 18h3v3H48V18M57 18h3v3H57V18M66 18h3v3H66V18M75 18h3v3H75V18M81 18h3v3H81V18M84 18h3v3H84V18M87 18h3v3H87V18M93 18h3v3H93V18M108 18h3v3H108V18M114 18h3v3H114V18M120 18h3v3H120V18M132 18h3v3H132V18M138 18h3v3H138V18M144 18h3v3H144V18M150 18h3v3H150V18M156 18h3v3H156V18M162 18h3v3H162V18M171 18h3v3H171V18M174 18h3v3H174V18M180 18h3v3H180V18M183 18h3v3H183V18M189 18h3v3H189V18M201 18h3v3H201V18M204 18h3v3H204V18M210 18h3v3H210V18M213 18h3v3H213V18M216 18h3v3H216V18M222 18h3v3H222V18M237 18h3v3H237V18M240 18h3v3H240V18M258 18h3v3H258V18M264 18h3v3H264V18M267 18h3v3H267V18M270 18h3v3H270V18M276 18h3v3H276V18M12 21h3v3H12V21M18 21h3v3H18V21M21 21h3v3H21V21M24 21h3v3H24V21M30 21h3v3H30V21M36 21h3v3H36V21M39 21h3v3H39V21M42 21h3v3H42V21M45 21h3v3H45V21M51 21h3v3H51V21M54 21h3v3H54V21M60 21h3v3H60V21M66 21h3v3H66V21M69 21h3v3H69V21M75 21h3v3H75V21M84 21h3v3H84V21M87 21h3v3H87V21M90 21h3v3H90V21M93 21h3v3H93V21M99 21h3v3H99V21M102 21h3v3H102V21M105 21h3v3H105V21M114 21h3v3H114V21M123 21h3v3H123V21M132 21h3v3H132V21M138 21h3v3H138V21M156 21h3v3H156V21M159 21h3v3H159V21M162 21h3v3H162V21M168 21h3v3H168V21M171 21h3v3H171V21M183 21h3v3H183V21M186 21h3v3H186V21M189 21h3v3H189V21M195 21h3v3H195V21M198 21h3v3H198V21M201 21h3v3H201V21M204 21h3v3H204V21M210 21h3v3H210V21M213 21h3v3H213V21M216 21h3v3H216V21M219 21h3v3H219V21M222 21h3v3H222V21M225 21h3v3H225V21M228 21h3v3H228V21M231 21h3v3H231V21M243 21h3v3H243V21M246 21h3v3H246V21M252 21h3v3H252V21M258 21h3v3H258V21M264 21h3v3H264V21M267 21h3v3H267V21M270 21h3v3H270V21M276 21h3v3H276V21M12 24h3v3H12V24M18 24h3v3H18V24M21 24h3v3H21V24M24 24h3v3H24V24M30 24h3v3H30V24M36 24h3v3H36V24M42 24h3v3H42V24M45 24h3v3H45V24M51 24h3v3H51V24M57 24h3v3H57V24M66 24h3v3H66V24M75 24h3v3H75V24M78 24h3v3H78V24M84 24h3v3H84V24M93 24h3v3H93V24M96 24h3v3H96V24M99 24h3v3H99V24M102 24h3v3H102V24M105 24h3v3H105V24M108 24h3v3H108V24M111 24h3v3H111V24M117 24h3v3H117V24M120 24h3v3H120V24M123 24h3v3H123V24M126 24h3v3H126V24M129 24h3v3H129V24M141 24h3v3H141V24M156 24h3v3H156V24M165 24h3v3H165V24M174 24h3v3H174V24M177 24h3v3H177V24M180 24h3v3H180V24M183 24h3v3H183V24M186 24h3v3H186V24M189 24h3v3H189V24M192 24h3v3H192V24M195 24h3v3H195V24M198 24h3v3H198V24M207 24h3v3H207V24M210 24h3v3H210V24M219 24h3v3H219V24M228 24h3v3H228V24M231 24h3v3H231V24M234 24h3v3H234V24M240 24h3v3H240V24M243 24h3v3H243V24M249 24h3v3H249V24M258 24h3v3H258V24M264 24h3v3H264V24M267 24h3v3H267V24M270 24h3v3H270V24M276 24h3v3H276V24M12 27h3v3H12V27M30 27h3v3H30V27M36 27h3v3H36V27M39 27h3v3H39V27M48 27h3v3H48V27M54 27h3v3H54V27M63 27h3v3H63V27M66 27h3v3H66V27M69 27h3v3H69V27M72 27h3v3H72V27M75 27h3v3H75V27M78 27h3v3H78V27M81 27h3v3H81V27M87 27h3v3H87V27M96 27h3v3H96V27M108 27h3v3H108V27M114 27h3v3H114V27M117 27h3v3H117V27M120 27h3v3H120V27M126 27h3v3H126V27M135 27h3v3H135V27M138 27h3v3H138V27M141 27h3v3H141V27M144 27h3v3H144V27M147 27h3v3H147V27M150 27h3v3H150V27M165 27h3v3H165V27M171 27h3v3H171V27M174 27h3v3H174V27M186 27h3v3H186V27M189 27h3v3H189V27M198 27h3v3H198V27M204 27h3v3H204V27M213 27h3v3H213V27M216 27h3v3H216V27M222 27h3v3H222V27M225 27h3v3H225V27M228 27h3v3H228V27M231 27h3v3H231V27M234 27h3v3H234V27M240 27h3v3H240V27M249 27h3v3H249V27M258 27h3v3H258V27M276 27h3v3H276V27M12 30h3v3H12V30M15 30h3v3H15V30M18 30h3v3H18V30M21 30h3v3H21V30M24 30h3v3H24V30M27 30h3v3H27V30M30 30h3v3H30V30M36 30h3v3H36V30M42 30h3v3H42V30M48 30h3v3H48V30M54 30h3v3H54V30M60 30h3v3H60V30M66 30h3v3H66V30M72 30h3v3H72V30M78 30h3v3H78V30M84 30h3v3H84V30M90 30h3v3H90V30M96 30h3v3H96V30M102 30h3v3H102V30M108 30h3v3H108V30M114 30h3v3H114V30M120 30h3v3H120V30M126 30h3v3H126V30M132 30h3v3H132V30M138 30h3v3H138V30M144 30h3v3H144V30M150 30h3v3H150V30M156 30h3v3H156V30M162 30h3v3H162V30M168 30h3v3H168V30M174 30h3v3H174V30M180 30h3v3H180V30M186 30h3v3H186V30M192 30h3v3H192V30M198 30h3v3H198V30M204 30h3v3H204V30M210 30h3v3H210V30M216 30h3v3H216V30M222 30h3v3H222V30M228 30h3v3H228V30M234 30h3v3H234V30M240 30h3v3H240V30M246 30h3v3H246V30M252 30h3v3H252V30M258 30h3v3H258V30M261 30h3v3H261V30M264 30h3v3H264V30M267 30h3v3H267V30M270 30h3v3H270V30M273 30h3v3H273V30M276 30h3v3H276V30M36 33h3v3H36V33M45 33h3v3H45V33M48 33h3v3H48V33M54 33h3v3H54V33M57 33h3v3H57V33M60 33h3v3H60V33M63 33h3v3H63V33M66 33h3v3H66V33M72 33h3v3H72V33M75 33h3v3H75V33M84 33h3v3H84V33M87 33h3v3H87V33M96 33h3v3H96V33M108 33h3v3H108V33M111 33h3v3H111V33M114 33h3v3H114V33M120 33h3v3H120V33M129 33h3v3H129V33M138 33h3v3H138V33M144 33h3v3H144V33M153 33h3v3H153V33M162 33h3v3H162V33M165 33h3v3H165V33M174 33h3v3H174V33M186 33h3v3H186V33M189 33h3v3H189V33M201 33h3v3H201V33M207 33h3v3H207V33M219 33h3v3H219V33M222 33h3v3H222V33M225 33h3v3H225V33M237 33h3v3H237V33M240 33h3v3H240V33M246 33h3v3H246V33M249 33h3v3H249V33M12 36h3v3H12V36M24 36h3v3H24V36M30 36h3v3H30V36M33 36h3v3H33V36M36 36h3v3H36V36M45 36h3v3H45V36M51 36h3v3H51V36M54 36h3v3H54V36M60 36h3v3H60V36M69 36h3v3H69V36M72 36h3v3H72V36M75 36h3v3H75V36M78 36h3v3H78V36M87 36h3v3H87V36M96 36h3v3H96V36M99 36h3v3H99V36M102 36h3v3H102V36M105 36h3v3H105V36M108 36h3v3H108V36M120 36h3v3H120V36M123 36h3v3H123V36M126 36h3v3H126V36M129 36h3v3H129V36M135 36h3v3H135V36M138 36h3v3H138V36M141 36h3v3H141V36M147 36h3v3H147V36M153 36h3v3H153V36M162 36h3v3H162V36M165 36h3v3H165V36M168 36h3v3H168V36M171 36h3v3H171V36M174 36h3v3H174V36M177 36h3v3H177V36M180 36h3v3H180V36M183 36h3v3H183V36M186 36h3v3H186V36M189 36h3v3H189V36M192 36h3v3H192V36M195 36h3v3H195V36M198 36h3v3H198V36M201 36h3v3H201V36M204 36h3v3H204V36M210 36h3v3H210V36M213 36h3v3H213V36M219 36h3v3H219V36M222 36h3v3H222V36M228 36h3v3H228V36M231 36h3v3H231V36M246 36h3v3H246V36M255 36h3v3H255V36M258 36h3v3H258V36M261 36h3v3H261V36M264 36h3v3H264V36M267 36h3v3H267V36M276 36h3v3H276V36M15 39h3v3H15V39M18 39h3v3H18V39M21 39h3v3H21V39M24 39h3v3H24V39M27 39h3v3H27V39M33 39h3v3H33V39M39 39h3v3H39V39M45 39h3v3H45V39M48 39h3v3H48V39M51 39h3v3H51V39M54 39h3v3H54V39M57 39h3v3H57V39M60 39h3v3H60V39M63 39h3v3H63V39M72 39h3v3H72V39M75 39h3v3H75V39M81 39h3v3H81V39M84 39h3v3H84V39M87 39h3v3H87V39M90 39h3v3H90V39M93 39h3v3H93V39M96 39h3v3H96V39M102 39h3v3H102V39M108 39h3v3H108V39M120 39h3v3H120V39M132 39h3v3H132V39M135 39h3v3H135V39M138 39h3v3H138V39M141 39h3v3H141V39M159 39h3v3H159V39M177 39h3v3H177V39M180 39h3v3H180V39M186 39h3v3H186V39M207 39h3v3H207V39M210 39h3v3H210V39M213 39h3v3H213V39M216 39h3v3H216V39M228 39h3v3H228V39M231 39h3v3H231V39M234 39h3v3H234V39M237 39h3v3H237V39M243 39h3v3H243V39M249 39h3v3H249V39M252 39h3v3H252V39M255 39h3v3H255V39M264 39h3v3H264V39M270 39h3v3H270V39M273 39h3v3H273V39M276 39h3v3H276V39M12 42h3v3H12V42M18 42h3v3H18V42M24 42h3v3H24V42M30 42h3v3H30V42M33 42h3v3H33V42M39 42h3v3H39V42M45 42h3v3H45V42M60 42h3v3H60V42M66 42h3v3H66V42M69 42h3v3H69V42M72 42h3v3H72V42M75 42h3v3H75V42M78 42h3v3H78V42M84 42h3v3H84V42M93 42h3v3H93V42M96 42h3v3H96V42M99 42h3v3H99V42M102 42h3v3H102V42M108 42h3v3H108V42M111 42h3v3H111V42M114 42h3v3H114V42M117 42h3v3H117V42M126 42h3v3H126V42M132 42h3v3H132V42M135 42h3v3H135V42M147 42h3v3H147V42M150 42h3v3H150V42M156 42h3v3H156V42M159 42h3v3H159V42M162 42h3v3H162V42M165 42h3v3H165V42M168 42h3v3H168V42M174 42h3v3H174V42M183 42h3v3H183V42M186 42h3v3H186V42M192 42h3v3H192V42M195 42h3v3H195V42M198 42h3v3H198V42M210 42h3v3H210V42M216 42h3v3H216V42M225 42h3v3H225V42M228 42h3v3H228V42M231 42h3v3H231V42M234 42h3v3H234V42M240 42h3v3H240V42M243 42h3v3H243V42M246 42h3v3H246V42M249 42h3v3H249V42M252 42h3v3H252V42M258 42h3v3H258V42M264 42h3v3H264V42M267 42h3v3H267V42M270 42h3v3H270V42M273 42h3v3H273V42M276 42h3v3H276V42M15 45h3v3H15V45M21 45h3v3H21V45M24 45h3v3H24V45M33 45h3v3H33V45M42 45h3v3H42V45M45 45h3v3H45V45M48 45h3v3H48V45M51 45h3v3H51V45M63 45h3v3H63V45M72 45h3v3H72V45M75 45h3v3H75V45M78 45h3v3H78V45M81 45h3v3H81V45M90 45h3v3H90V45M93 45h3v3H93V45M96 45h3v3H96V45M114 45h3v3H114V45M117 45h3v3H117V45M126 45h3v3H126V45M132 45h3v3H132V45M147 45h3v3H147V45M153 45h3v3H153V45M156 45h3v3H156V45M168 45h3v3H168V45M177 45h3v3H177V45M195 45h3v3H195V45M213 45h3v3H213V45M216 45h3v3H216V45M222 45h3v3H222V45M225 45h3v3H225V45M228 45h3v3H228V45M231 45h3v3H231V45M234 45h3v3H234V45M243 45h3v3H243V45M246 45h3v3H246V45M258 45h3v3H258V45M267 45h3v3H267V45M273 45h3v3H273V45M12 48h3v3H12V48M15 48h3v3H15V48M24 48h3v3H24V48M27 48h3v3H27V48M30 48h3v3H30V48M33 48h3v3H33V48M45 48h3v3H45V48M51 48h3v3H51V48M54 48h3v3H54V48M63 48h3v3H63V48M66 48h3v3H66V48M72 48h3v3H72V48M75 48h3v3H75V48M78 48h3v3H78V48M84 48h3v3H84V48M90 48h3v3H90V48M93 48h3v3H93V48M96 48h3v3H96V48M111 48h3v3H111V48M114 48h3v3H114V48M120 48h3v3H120V48M123 48h3v3H123V48M126 48h3v3H126V48M132 48h3v3H132V48M135 48h3v3H135V48M141 48h3v3H141V48M150 48h3v3H150V48M162 48h3v3H162V48M165 48h3v3H165V48M177 48h3v3H177V48M180 48h3v3H180V48M183 48h3v3H183V48M195 48h3v3H195V48M201 48h3v3H201V48M219 48h3v3H219V48M228 48h3v3H228V48M231 48h3v3H231V48M234 48h3v3H234V48M237 48h3v3H237V48M240 48h3v3H240V48M243 48h3v3H243V48M252 48h3v3H252V48M261 48h3v3H261V48M264 48h3v3H264V48M270 48h3v3H270V48M273 48h3v3H273V48M276 48h3v3H276V48M12 51h3v3H12V51M15 51h3v3H15V51M27 51h3v3H27V51M36 51h3v3H36V51M39 51h3v3H39V51M45 51h3v3H45V51M51 51h3v3H51V51M63 51h3v3H63V51M66 51h3v3H66V51M69 51h3v3H69V51M75 51h3v3H75V51M78 51h3v3H78V51M87 51h3v3H87V51M93 51h3v3H93V51M96 51h3v3H96V51M111 51h3v3H111V51M114 51h3v3H114V51M120 51h3v3H120V51M123 51h3v3H123V51M138 51h3v3H138V51M141 51h3v3H141V51M144 51h3v3H144V51M156 51h3v3H156V51M159 51h3v3H159V51M162 51h3v3H162V51M168 51h3v3H168V51M174 51h3v3H174V51M177 51h3v3H177V51M180 51h3v3H180V51M183 51h3v3H183V51M186 51h3v3H186V51M192 51h3v3H192V51M198 51h3v3H198V51M201 51h3v3H201V51M204 51h3v3H204V51M213 51h3v3H213V51M216 51h3v3H216V51M219 51h3v3H219V51M222 51h3v3H222V51M225 51h3v3H225V51M228 51h3v3H228V51M231 51h3v3H231V51M237 51h3v3H237V51M246 51h3v3H246V51M252 51h3v3H252V51M261 51h3v3H261V51M264 51h3v3H264V51M267 51h3v3H267V51M12 54h3v3H12V54M27 54h3v3H27V54M30 54h3v3H30V54M33 54h3v3H33V54M39 54h3v3H39V54M48 54h3v3H48V54M54 54h3v3H54V54M57 54h3v3H57V54M66 54h3v3H66V54M69 54h3v3H69V54M72 54h3v3H72V54M75 54h3v3H75V54M78 54h3v3H78V54M81 54h3v3H81V54M84 54h3v3H84V54M93 54h3v3H93V54M96 54h3v3H96V54M99 54h3v3H99V54M105 54h3v3H105V54M108 54h3v3H108V54M111 54h3v3H111V54M117 54h3v3H117V54M132 54h3v3H132V54M138 54h3v3H138V54M159 54h3v3H159V54M174 54h3v3H174V54M180 54h3v3H180V54M192 54h3v3H192V54M201 54h3v3H201V54M207 54h3v3H207V54M210 54h3v3H210V54M213 54h3v3H213V54M222 54h3v3H222V54M225 54h3v3H225V54M231 54h3v3H231V54M234 54h3v3H234V54M243 54h3v3H243V54M246 54h3v3H246V54M255 54h3v3H255V54M258 54h3v3H258V54M267 54h3v3H267V54M270 54h3v3H270V54M273 54h3v3H273V54M276 54h3v3H276V54M15 57h3v3H15V57M21 57h3v3H21V57M24 57h3v3H24V57M33 57h3v3H33V57M48 57h3v3H48V57M63 57h3v3H63V57M87 57h3v3H87V57M102 57h3v3H102V57M105 57h3v3H105V57M108 57h3v3H108V57M114 57h3v3H114V57M117 57h3v3H117V57M132 57h3v3H132V57M135 57h3v3H135V57M141 57h3v3H141V57M144 57h3v3H144V57M147 57h3v3H147V57M150 57h3v3H150V57M156 57h3v3H156V57M162 57h3v3H162V57M165 57h3v3H165V57M168 57h3v3H168V57M180 57h3v3H180V57M183 57h3v3H183V57M189 57h3v3H189V57M201 57h3v3H201V57M204 57h3v3H204V57M207 57h3v3H207V57M216 57h3v3H216V57M225 57h3v3H225V57M231 57h3v3H231V57M240 57h3v3H240V57M249 57h3v3H249V57M255 57h3v3H255V57M258 57h3v3H258V57M261 57h3v3H261V57M264 57h3v3H264V57M267 57h3v3H267V57M273 57h3v3H273V57M276 57h3v3H276V57M12 60h3v3H12V60M15 60h3v3H15V60M18 60h3v3H18V60M27 60h3v3H27V60M30 60h3v3H30V60M39 60h3v3H39V60M42 60h3v3H42V60M45 60h3v3H45V60M51 60h3v3H51V60M60 60h3v3H60V60M69 60h3v3H69V60M72 60h3v3H72V60M84 60h3v3H84V60M96 60h3v3H96V60M114 60h3v3H114V60M117 60h3v3H117V60M129 60h3v3H129V60M138 60h3v3H138V60M141 60h3v3H141V60M156 60h3v3H156V60M159 60h3v3H159V60M189 60h3v3H189V60M192 60h3v3H192V60M201 60h3v3H201V60M204 60h3v3H204V60M207 60h3v3H207V60M210 60h3v3H210V60M213 60h3v3H213V60M219 60h3v3H219V60M222 60h3v3H222V60M228 60h3v3H228V60M231 60h3v3H231V60M234 60h3v3H234V60M243 60h3v3H243V60M249 60h3v3H249V60M252 60h3v3H252V60M267 60h3v3H267V60M18 63h3v3H18V63M21 63h3v3H21V63M33 63h3v3H33V63M39 63h3v3H39V63M42 63h3v3H42V63M45 63h3v3H45V63M51 63h3v3H51V63M60 63h3v3H60V63M63 63h3v3H63V63M66 63h3v3H66V63M69 63h3v3H69V63M75 63h3v3H75V63M81 63h3v3H81V63M102 63h3v3H102V63M135 63h3v3H135V63M138 63h3v3H138V63M141 63h3v3H141V63M147 63h3v3H147V63M159 63h3v3H159V63M162 63h3v3H162V63M165 63h3v3H165V63M189 63h3v3H189V63M195 63h3v3H195V63M198 63h3v3H198V63M201 63h3v3H201V63M210 63h3v3H210V63M213 63h3v3H213V63M222 63h3v3H222V63M234 63h3v3H234V63M240 63h3v3H240V63M243 63h3v3H243V63M246 63h3v3H246V63M249 63h3v3H249V63M252 63h3v3H252V63M270 63h3v3H270V63M12 66h3v3H12V66M15 66h3v3H15V66M21 66h3v3H21V66M24 66h3v3H24V66M30 66h3v3H30V66M42 66h3v3H42V66M45 66h3v3H45V66M48 66h3v3H48V66M51 66h3v3H51V66M57 66h3v3H57V66M60 66h3v3H60V66M69 66h3v3H69V66M84 66h3v3H84V66M90 66h3v3H90V66M105 66h3v3H105V66M108 66h3v3H108V66M111 66h3v3H111V66M114 66h3v3H114V66M120 66h3v3H120V66M129 66h3v3H129V66M135 66h3v3H135V66M147 66h3v3H147V66M153 66h3v3H153V66M156 66h3v3H156V66M165 66h3v3H165V66M168 66h3v3H168V66M174 66h3v3H174V66M177 66h3v3H177V66M183 66h3v3H183V66M189 66h3v3H189V66M207 66h3v3H207V66M213 66h3v3H213V66M228 66h3v3H228V66M231 66h3v3H231V66M234 66h3v3H234V66M237 66h3v3H237V66M243 66h3v3H243V66M258 66h3v3H258V66M261 66h3v3H261V66M270 66h3v3H270V66M276 66h3v3H276V66M12 69h3v3H12V69M24 69h3v3H24V69M27 69h3v3H27V69M39 69h3v3H39V69M45 69h3v3H45V69M51 69h3v3H51V69M60 69h3v3H60V69M63 69h3v3H63V69M66 69h3v3H66V69M81 69h3v3H81V69M87 69h3v3H87V69M90 69h3v3H90V69M93 69h3v3H93V69M102 69h3v3H102V69M108 69h3v3H108V69M111 69h3v3H111V69M114 69h3v3H114V69M126 69h3v3H126V69M135 69h3v3H135V69M144 69h3v3H144V69M147 69h3v3H147V69M153 69h3v3H153V69M162 69h3v3H162V69M165 69h3v3H165V69M168 69h3v3H168V69M174 69h3v3H174V69M177 69h3v3H177V69M180 69h3v3H180V69M186 69h3v3H186V69M195 69h3v3H195V69M204 69h3v3H204V69M213 69h3v3H213V69M222 69h3v3H222V69M228 69h3v3H228V69M234 69h3v3H234V69M240 69h3v3H240V69M243 69h3v3H243V69M255 69h3v3H255V69M258 69h3v3H258V69M270 69h3v3H270V69M273 69h3v3H273V69M276 69h3v3H276V69M18 72h3v3H18V72M24 72h3v3H24V72M30 72h3v3H30V72M33 72h3v3H33V72M36 72h3v3H36V72M45 72h3v3H45V72M51 72h3v3H51V72M57 72h3v3H57V72M60 72h3v3H60V72M72 72h3v3H72V72M75 72h3v3H75V72M78 72h3v3H78V72M90 72h3v3H90V72M93 72h3v3H93V72M96 72h3v3H96V72M99 72h3v3H99V72M111 72h3v3H111V72M123 72h3v3H123V72M132 72h3v3H132V72M135 72h3v3H135V72M141 72h3v3H141V72M144 72h3v3H144V72M150 72h3v3H150V72M159 72h3v3H159V72M168 72h3v3H168V72M177 72h3v3H177V72M180 72h3v3H180V72M183 72h3v3H183V72M189 72h3v3H189V72M192 72h3v3H192V72M195 72h3v3H195V72M207 72h3v3H207V72M213 72h3v3H213V72M216 72h3v3H216V72M222 72h3v3H222V72M225 72h3v3H225V72M228 72h3v3H228V72M231 72h3v3H231V72M234 72h3v3H234V72M237 72h3v3H237V72M240 72h3v3H240V72M246 72h3v3H246V72M249 72h3v3H249V72M252 72h3v3H252V72M258 72h3v3H258V72M261 72h3v3H261V72M264 72h3v3H264V72M267 72h3v3H267V72M15 75h3v3H15V75M18 75h3v3H18V75M21 75h3v3H21V75M24 75h3v3H24V75M33 75h3v3H33V75M36 75h3v3H36V75M39 75h3v3H39V75M57 75h3v3H57V75M69 75h3v3H69V75M72 75h3v3H72V75M75 75h3v3H75V75M81 75h3v3H81V75M84 75h3v3H84V75M93 75h3v3H93V75M99 75h3v3H99V75M102 75h3v3H102V75M105 75h3v3H105V75M114 75h3v3H114V75M123 75h3v3H123V75M126 75h3v3H126V75M135 75h3v3H135V75M138 75h3v3H138V75M144 75h3v3H144V75M147 75h3v3H147V75M150 75h3v3H150V75M156 75h3v3H156V75M159 75h3v3H159V75M180 75h3v3H180V75M192 75h3v3H192V75M201 75h3v3H201V75M210 75h3v3H210V75M213 75h3v3H213V75M216 75h3v3H216V75M222 75h3v3H222V75M225 75h3v3H225V75M231 75h3v3H231V75M240 75h3v3H240V75M246 75h3v3H246V75M249 75h3v3H249V75M255 75h3v3H255V75M258 75h3v3H258V75M261 75h3v3H261V75M267 75h3v3H267V75M276 75h3v3H276V75M21 78h3v3H21V78M24 78h3v3H24V78M30 78h3v3H30V78M39 78h3v3H39V78M54 78h3v3H54V78M57 78h3v3H57V78M60 78h3v3H60V78M63 78h3v3H63V78M66 78h3v3H66V78M69 78h3v3H69V78M75 78h3v3H75V78M93 78h3v3H93V78M96 78h3v3H96V78M102 78h3v3H102V78M111 78h3v3H111V78M114 78h3v3H114V78M123 78h3v3H123V78M126 78h3v3H126V78M129 78h3v3H129V78M132 78h3v3H132V78M135 78h3v3H135V78M138 78h3v3H138V78M147 78h3v3H147V78M153 78h3v3H153V78M159 78h3v3H159V78M162 78h3v3H162V78M165 78h3v3H165V78M168 78h3v3H168V78M174 78h3v3H174V78M183 78h3v3H183V78M186 78h3v3H186V78M195 78h3v3H195V78M210 78h3v3H210V78M216 78h3v3H216V78M225 78h3v3H225V78M243 78h3v3H243V78M252 78h3v3H252V78M255 78h3v3H255V78M273 78h3v3H273V78M276 78h3v3H276V78M12 81h3v3H12V81M15 81h3v3H15V81M18 81h3v3H18V81M21 81h3v3H21V81M24 81h3v3H24V81M27 81h3v3H27V81M33 81h3v3H33V81M36 81h3v3H36V81M42 81h3v3H42V81M45 81h3v3H45V81M48 81h3v3H48V81M51 81h3v3H51V81M57 81h3v3H57V81M63 81h3v3H63V81M72 81h3v3H72V81M81 81h3v3H81V81M84 81h3v3H84V81M87 81h3v3H87V81M96 81h3v3H96V81M102 81h3v3H102V81M105 81h3v3H105V81M108 81h3v3H108V81M111 81h3v3H111V81M120 81h3v3H120V81M129 81h3v3H129V81M132 81h3v3H132V81M138 81h3v3H138V81M147 81h3v3H147V81M150 81h3v3H150V81M156 81h3v3H156V81M159 81h3v3H159V81M174 81h3v3H174V81M177 81h3v3H177V81M180 81h3v3H180V81M189 81h3v3H189V81M195 81h3v3H195V81M204 81h3v3H204V81M213 81h3v3H213V81M219 81h3v3H219V81M225 81h3v3H225V81M231 81h3v3H231V81M240 81h3v3H240V81M243 81h3v3H243V81M252 81h3v3H252V81M258 81h3v3H258V81M261 81h3v3H261V81M273 81h3v3H273V81M21 84h3v3H21V84M30 84h3v3H30V84M39 84h3v3H39V84M42 84h3v3H42V84M45 84h3v3H45V84M48 84h3v3H48V84M66 84h3v3H66V84M72 84h3v3H72V84M75 84h3v3H75V84M78 84h3v3H78V84M84 84h3v3H84V84M93 84h3v3H93V84M96 84h3v3H96V84M99 84h3v3H99V84M102 84h3v3H102V84M108 84h3v3H108V84M111 84h3v3H111V84M114 84h3v3H114V84M126 84h3v3H126V84M141 84h3v3H141V84M144 84h3v3H144V84M147 84h3v3H147V84M150 84h3v3H150V84M156 84h3v3H156V84M162 84h3v3H162V84M171 84h3v3H171V84M180 84h3v3H180V84M186 84h3v3H186V84M210 84h3v3H210V84M213 84h3v3H213V84M216 84h3v3H216V84M219 84h3v3H219V84M222 84h3v3H222V84M234 84h3v3H234V84M237 84h3v3H237V84M240 84h3v3H240V84M243 84h3v3H243V84M246 84h3v3H246V84M249 84h3v3H249V84M261 84h3v3H261V84M276 84h3v3H276V84M15 87h3v3H15V87M18 87h3v3H18V87M21 87h3v3H21V87M24 87h3v3H24V87M36 87h3v3H36V87M39 87h3v3H39V87M48 87h3v3H48V87M81 87h3v3H81V87M87 87h3v3H87V87M96 87h3v3H96V87M111 87h3v3H111V87M117 87h3v3H117V87M126 87h3v3H126V87M135 87h3v3H135V87M141 87h3v3H141V87M144 87h3v3H144V87M150 87h3v3H150V87M153 87h3v3H153V87M165 87h3v3H165V87M168 87h3v3H168V87M171 87h3v3H171V87M174 87h3v3H174V87M177 87h3v3H177V87M186 87h3v3H186V87M198 87h3v3H198V87M201 87h3v3H201V87M210 87h3v3H210V87M213 87h3v3H213V87M216 87h3v3H216V87M219 87h3v3H219V87M222 87h3v3H222V87M225 87h3v3H225V87M234 87h3v3H234V87M237 87h3v3H237V87M246 87h3v3H246V87M264 87h3v3H264V87M267 87h3v3H267V87M12 90h3v3H12V90M18 90h3v3H18V90M24 90h3v3H24V90M30 90h3v3H30V90M33 90h3v3H33V90M42 90h3v3H42V90M45 90h3v3H45V90M48 90h3v3H48V90M54 90h3v3H54V90M60 90h3v3H60V90M69 90h3v3H69V90M93 90h3v3H93V90M96 90h3v3H96V90M99 90h3v3H99V90M108 90h3v3H108V90M111 90h3v3H111V90M114 90h3v3H114V90M117 90h3v3H117V90M120 90h3v3H120V90M123 90h3v3H123V90M129 90h3v3H129V90M132 90h3v3H132V90M135 90h3v3H135V90M144 90h3v3H144V90M147 90h3v3H147V90M150 90h3v3H150V90M153 90h3v3H153V90M165 90h3v3H165V90M171 90h3v3H171V90M174 90h3v3H174V90M180 90h3v3H180V90M183 90h3v3H183V90M189 90h3v3H189V90M198 90h3v3H198V90M201 90h3v3H201V90M210 90h3v3H210V90M213 90h3v3H213V90M222 90h3v3H222V90M228 90h3v3H228V90M240 90h3v3H240V90M243 90h3v3H243V90M258 90h3v3H258V90M270 90h3v3H270V90M273 90h3v3H273V90M15 93h3v3H15V93M18 93h3v3H18V93M24 93h3v3H24V93M27 93h3v3H27V93M42 93h3v3H42V93M54 93h3v3H54V93M60 93h3v3H60V93M72 93h3v3H72V93M78 93h3v3H78V93M81 93h3v3H81V93M84 93h3v3H84V93M90 93h3v3H90V93M96 93h3v3H96V93M99 93h3v3H99V93M105 93h3v3H105V93M108 93h3v3H108V93M117 93h3v3H117V93M129 93h3v3H129V93M132 93h3v3H132V93M141 93h3v3H141V93M156 93h3v3H156V93M162 93h3v3H162V93M171 93h3v3H171V93M180 93h3v3H180V93M186 93h3v3H186V93M192 93h3v3H192V93M201 93h3v3H201V93M204 93h3v3H204V93M219 93h3v3H219V93M234 93h3v3H234V93M252 93h3v3H252V93M255 93h3v3H255V93M258 93h3v3H258V93M261 93h3v3H261V93M264 93h3v3H264V93M267 93h3v3H267V93M270 93h3v3H270V93M273 93h3v3H273V93M24 96h3v3H24V96M27 96h3v3H27V96M30 96h3v3H30V96M33 96h3v3H33V96M36 96h3v3H36V96M48 96h3v3H48V96M51 96h3v3H51V96M63 96h3v3H63V96M66 96h3v3H66V96M69 96h3v3H69V96M72 96h3v3H72V96M78 96h3v3H78V96M81 96h3v3H81V96M84 96h3v3H84V96M90 96h3v3H90V96M96 96h3v3H96V96M99 96h3v3H99V96M102 96h3v3H102V96M105 96h3v3H105V96M108 96h3v3H108V96M114 96h3v3H114V96M120 96h3v3H120V96M123 96h3v3H123V96M126 96h3v3H126V96M129 96h3v3H129V96M141 96h3v3H141V96M144 96h3v3H144V96M156 96h3v3H156V96M168 96h3v3H168V96M174 96h3v3H174V96M177 96h3v3H177V96M180 96h3v3H180V96M183 96h3v3H183V96M186 96h3v3H186V96M189 96h3v3H189V96M195 96h3v3H195V96M204 96h3v3H204V96M213 96h3v3H213V96M222 96h3v3H222V96M234 96h3v3H234V96M237 96h3v3H237V96M246 96h3v3H246V96M252 96h3v3H252V96M255 96h3v3H255V96M258 96h3v3H258V96M261 96h3v3H261V96M264 96h3v3H264V96M276 96h3v3H276V96M18 99h3v3H18V99M21 99h3v3H21V99M24 99h3v3H24V99M36 99h3v3H36V99M42 99h3v3H42V99M48 99h3v3H48V99M57 99h3v3H57V99M66 99h3v3H66V99M69 99h3v3H69V99M72 99h3v3H72V99M75 99h3v3H75V99M87 99h3v3H87V99M90 99h3v3H90V99M93 99h3v3H93V99M96 99h3v3H96V99M108 99h3v3H108V99M111 99h3v3H111V99M120 99h3v3H120V99M123 99h3v3H123V99M126 99h3v3H126V99M129 99h3v3H129V99M138 99h3v3H138V99M144 99h3v3H144V99M150 99h3v3H150V99M156 99h3v3H156V99M171 99h3v3H171V99M174 99h3v3H174V99M186 99h3v3H186V99M189 99h3v3H189V99M192 99h3v3H192V99M198 99h3v3H198V99M210 99h3v3H210V99M213 99h3v3H213V99M222 99h3v3H222V99M231 99h3v3H231V99M246 99h3v3H246V99M249 99h3v3H249V99M252 99h3v3H252V99M264 99h3v3H264V99M267 99h3v3H267V99M270 99h3v3H270V99M12 102h3v3H12V102M18 102h3v3H18V102M24 102h3v3H24V102M30 102h3v3H30V102M36 102h3v3H36V102M42 102h3v3H42V102M45 102h3v3H45V102M57 102h3v3H57V102M69 102h3v3H69V102M75 102h3v3H75V102M78 102h3v3H78V102M84 102h3v3H84V102M90 102h3v3H90V102M96 102h3v3H96V102M102 102h3v3H102V102M108 102h3v3H108V102M111 102h3v3H111V102M114 102h3v3H114V102M117 102h3v3H117V102M132 102h3v3H132V102M153 102h3v3H153V102M156 102h3v3H156V102M162 102h3v3H162V102M165 102h3v3H165V102M171 102h3v3H171V102M174 102h3v3H174V102M180 102h3v3H180V102M186 102h3v3H186V102M192 102h3v3H192V102M198 102h3v3H198V102M201 102h3v3H201V102M204 102h3v3H204V102M207 102h3v3H207V102M210 102h3v3H210V102M213 102h3v3H213V102M216 102h3v3H216V102M222 102h3v3H222V102M231 102h3v3H231V102M237 102h3v3H237V102M240 102h3v3H240V102M249 102h3v3H249V102M252 102h3v3H252V102M258 102h3v3H258V102M264 102h3v3H264V102M267 102h3v3H267V102M270 102h3v3H270V102M15 105h3v3H15V105M18 105h3v3H18V105M24 105h3v3H24V105M36 105h3v3H36V105M39 105h3v3H39V105M45 105h3v3H45V105M54 105h3v3H54V105M57 105h3v3H57V105M72 105h3v3H72V105M78 105h3v3H78V105M84 105h3v3H84V105M96 105h3v3H96V105M108 105h3v3H108V105M111 105h3v3H111V105M114 105h3v3H114V105M129 105h3v3H129V105M135 105h3v3H135V105M141 105h3v3H141V105M147 105h3v3H147V105M153 105h3v3H153V105M156 105h3v3H156V105M162 105h3v3H162V105M168 105h3v3H168V105M174 105h3v3H174V105M186 105h3v3H186V105M189 105h3v3H189V105M192 105h3v3H192V105M201 105h3v3H201V105M204 105h3v3H204V105M207 105h3v3H207V105M222 105h3v3H222V105M225 105h3v3H225V105M231 105h3v3H231V105M234 105h3v3H234V105M237 105h3v3H237V105M240 105h3v3H240V105M246 105h3v3H246V105M249 105h3v3H249V105M252 105h3v3H252V105M264 105h3v3H264V105M273 105h3v3H273V105M276 105h3v3H276V105M12 108h3v3H12V108M21 108h3v3H21V108M24 108h3v3H24V108M27 108h3v3H27V108M30 108h3v3H30V108M33 108h3v3H33V108M36 108h3v3H36V108M39 108h3v3H39V108M45 108h3v3H45V108M51 108h3v3H51V108M54 108h3v3H54V108M57 108h3v3H57V108M60 108h3v3H60V108M63 108h3v3H63V108M69 108h3v3H69V108M75 108h3v3H75V108M90 108h3v3H90V108M96 108h3v3H96V108M99 108h3v3H99V108M102 108h3v3H102V108M105 108h3v3H105V108M108 108h3v3H108V108M114 108h3v3H114V108M123 108h3v3H123V108M129 108h3v3H129V108M132 108h3v3H132V108M138 108h3v3H138V108M141 108h3v3H141V108M153 108h3v3H153V108M156 108h3v3H156V108M171 108h3v3H171V108M174 108h3v3H174V108M177 108h3v3H177V108M180 108h3v3H180V108M183 108h3v3H183V108M186 108h3v3H186V108M192 108h3v3H192V108M195 108h3v3H195V108M201 108h3v3H201V108M207 108h3v3H207V108M210 108h3v3H210V108M216 108h3v3H216V108M231 108h3v3H231V108M234 108h3v3H234V108M240 108h3v3H240V108M249 108h3v3H249V108M252 108h3v3H252V108M255 108h3v3H255V108M258 108h3v3H258V108M261 108h3v3H261V108M264 108h3v3H264V108M267 108h3v3H267V108M270 108h3v3H270V108M276 108h3v3H276V108M12 111h3v3H12V111M18 111h3v3H18V111M24 111h3v3H24V111M36 111h3v3H36V111M42 111h3v3H42V111M48 111h3v3H48V111M51 111h3v3H51V111M54 111h3v3H54V111M57 111h3v3H57V111M60 111h3v3H60V111M63 111h3v3H63V111M72 111h3v3H72V111M75 111h3v3H75V111M78 111h3v3H78V111M81 111h3v3H81V111M84 111h3v3H84V111M87 111h3v3H87V111M93 111h3v3H93V111M114 111h3v3H114V111M117 111h3v3H117V111M123 111h3v3H123V111M129 111h3v3H129V111M147 111h3v3H147V111M150 111h3v3H150V111M165 111h3v3H165V111M168 111h3v3H168V111M171 111h3v3H171V111M177 111h3v3H177V111M180 111h3v3H180V111M183 111h3v3H183V111M195 111h3v3H195V111M207 111h3v3H207V111M210 111h3v3H210V111M213 111h3v3H213V111M219 111h3v3H219V111M231 111h3v3H231V111M234 111h3v3H234V111M237 111h3v3H237V111M243 111h3v3H243V111M246 111h3v3H246V111M249 111h3v3H249V111M252 111h3v3H252V111M255 111h3v3H255V111M270 111h3v3H270V111M273 111h3v3H273V111M21 114h3v3H21V114M27 114h3v3H27V114M30 114h3v3H30V114M39 114h3v3H39V114M51 114h3v3H51V114M63 114h3v3H63V114M66 114h3v3H66V114M78 114h3v3H78V114M87 114h3v3H87V114M96 114h3v3H96V114M99 114h3v3H99V114M102 114h3v3H102V114M108 114h3v3H108V114M114 114h3v3H114V114M117 114h3v3H117V114M126 114h3v3H126V114M129 114h3v3H129V114M135 114h3v3H135V114M141 114h3v3H141V114M144 114h3v3H144V114M147 114h3v3H147V114M156 114h3v3H156V114M159 114h3v3H159V114M162 114h3v3H162V114M165 114h3v3H165V114M168 114h3v3H168V114M171 114h3v3H171V114M177 114h3v3H177V114M183 114h3v3H183V114M186 114h3v3H186V114M192 114h3v3H192V114M195 114h3v3H195V114M201 114h3v3H201V114M207 114h3v3H207V114M213 114h3v3H213V114M219 114h3v3H219V114M228 114h3v3H228V114M231 114h3v3H231V114M246 114h3v3H246V114M249 114h3v3H249V114M255 114h3v3H255V114M270 114h3v3H270V114M273 114h3v3H273V114M276 114h3v3H276V114M12 117h3v3H12V117M15 117h3v3H15V117M18 117h3v3H18V117M27 117h3v3H27V117M42 117h3v3H42V117M45 117h3v3H45V117M54 117h3v3H54V117M60 117h3v3H60V117M63 117h3v3H63V117M72 117h3v3H72V117M81 117h3v3H81V117M87 117h3v3H87V117M96 117h3v3H96V117M105 117h3v3H105V117M111 117h3v3H111V117M114 117h3v3H114V117M123 117h3v3H123V117M135 117h3v3H135V117M138 117h3v3H138V117M144 117h3v3H144V117M150 117h3v3H150V117M153 117h3v3H153V117M165 117h3v3H165V117M168 117h3v3H168V117M180 117h3v3H180V117M183 117h3v3H183V117M186 117h3v3H186V117M198 117h3v3H198V117M201 117h3v3H201V117M207 117h3v3H207V117M219 117h3v3H219V117M222 117h3v3H222V117M228 117h3v3H228V117M231 117h3v3H231V117M240 117h3v3H240V117M243 117h3v3H243V117M249 117h3v3H249V117M255 117h3v3H255V117M258 117h3v3H258V117M264 117h3v3H264V117M273 117h3v3H273V117M12 120h3v3H12V120M15 120h3v3H15V120M21 120h3v3H21V120M30 120h3v3H30V120M33 120h3v3H33V120M36 120h3v3H36V120M42 120h3v3H42V120M48 120h3v3H48V120M54 120h3v3H54V120M60 120h3v3H60V120M63 120h3v3H63V120M66 120h3v3H66V120M69 120h3v3H69V120M84 120h3v3H84V120M105 120h3v3H105V120M108 120h3v3H108V120M123 120h3v3H123V120M126 120h3v3H126V120M135 120h3v3H135V120M141 120h3v3H141V120M147 120h3v3H147V120M156 120h3v3H156V120M159 120h3v3H159V120M162 120h3v3H162V120M171 120h3v3H171V120M174 120h3v3H174V120M180 120h3v3H180V120M186 120h3v3H186V120M192 120h3v3H192V120M198 120h3v3H198V120M201 120h3v3H201V120M204 120h3v3H204V120M213 120h3v3H213V120M216 120h3v3H216V120M225 120h3v3H225V120M237 120h3v3H237V120M240 120h3v3H240V120M243 120h3v3H243V120M249 120h3v3H249V120M252 120h3v3H252V120M258 120h3v3H258V120M261 120h3v3H261V120M264 120h3v3H264V120M270 120h3v3H270V120M15 123h3v3H15V123M21 123h3v3H21V123M24 123h3v3H24V123M27 123h3v3H27V123M36 123h3v3H36V123M39 123h3v3H39V123M42 123h3v3H42V123M51 123h3v3H51V123M54 123h3v3H54V123M57 123h3v3H57V123M66 123h3v3H66V123M72 123h3v3H72V123M75 123h3v3H75V123M81 123h3v3H81V123M84 123h3v3H84V123M111 123h3v3H111V123M117 123h3v3H117V123M120 123h3v3H120V123M132 123h3v3H132V123M135 123h3v3H135V123M138 123h3v3H138V123M141 123h3v3H141V123M156 123h3v3H156V123M159 123h3v3H159V123M162 123h3v3H162V123M165 123h3v3H165V123M168 123h3v3H168V123M171 123h3v3H171V123M174 123h3v3H174V123M177 123h3v3H177V123M189 123h3v3H189V123M192 123h3v3H192V123M195 123h3v3H195V123M198 123h3v3H198V123M210 123h3v3H210V123M213 123h3v3H213V123M216 123h3v3H216V123M225 123h3v3H225V123M234 123h3v3H234V123M240 123h3v3H240V123M246 123h3v3H246V123M249 123h3v3H249V123M252 123h3v3H252V123M255 123h3v3H255V123M261 123h3v3H261V123M264 123h3v3H264V123M270 123h3v3H270V123M18 126h3v3H18V126M24 126h3v3H24V126M30 126h3v3H30V126M33 126h3v3H33V126M39 126h3v3H39V126M42 126h3v3H42V126M45 126h3v3H45V126M51 126h3v3H51V126M63 126h3v3H63V126M69 126h3v3H69V126M78 126h3v3H78V126M84 126h3v3H84V126M96 126h3v3H96V126M102 126h3v3H102V126M105 126h3v3H105V126M111 126h3v3H111V126M117 126h3v3H117V126M132 126h3v3H132V126M153 126h3v3H153V126M165 126h3v3H165V126M168 126h3v3H168V126M171 126h3v3H171V126M183 126h3v3H183V126M186 126h3v3H186V126M189 126h3v3H189V126M195 126h3v3H195V126M204 126h3v3H204V126M216 126h3v3H216V126M219 126h3v3H219V126M222 126h3v3H222V126M225 126h3v3H225V126M237 126h3v3H237V126M243 126h3v3H243V126M246 126h3v3H246V126M261 126h3v3H261V126M273 126h3v3H273V126M18 129h3v3H18V129M21 129h3v3H21V129M24 129h3v3H24V129M27 129h3v3H27V129M36 129h3v3H36V129M39 129h3v3H39V129M42 129h3v3H42V129M45 129h3v3H45V129M57 129h3v3H57V129M60 129h3v3H60V129M63 129h3v3H63V129M69 129h3v3H69V129M72 129h3v3H72V129M78 129h3v3H78V129M81 129h3v3H81V129M84 129h3v3H84V129M93 129h3v3H93V129M99 129h3v3H99V129M105 129h3v3H105V129M117 129h3v3H117V129M120 129h3v3H120V129M123 129h3v3H123V129M126 129h3v3H126V129M129 129h3v3H129V129M132 129h3v3H132V129M135 129h3v3H135V129M138 129h3v3H138V129M141 129h3v3H141V129M144 129h3v3H144V129M147 129h3v3H147V129M150 129h3v3H150V129M153 129h3v3H153V129M156 129h3v3H156V129M162 129h3v3H162V129M165 129h3v3H165V129M168 129h3v3H168V129M171 129h3v3H171V129M180 129h3v3H180V129M183 129h3v3H183V129M186 129h3v3H186V129M195 129h3v3H195V129M198 129h3v3H198V129M201 129h3v3H201V129M204 129h3v3H204V129M207 129h3v3H207V129M216 129h3v3H216V129M219 129h3v3H219V129M222 129h3v3H222V129M225 129h3v3H225V129M231 129h3v3H231V129M234 129h3v3H234V129M240 129h3v3H240V129M246 129h3v3H246V129M255 129h3v3H255V129M258 129h3v3H258V129M261 129h3v3H261V129M264 129h3v3H264V129M270 129h3v3H270V129M273 129h3v3H273V129M276 129h3v3H276V129M12 132h3v3H12V132M15 132h3v3H15V132M30 132h3v3H30V132M33 132h3v3H33V132M39 132h3v3H39V132M51 132h3v3H51V132M54 132h3v3H54V132M57 132h3v3H57V132M63 132h3v3H63V132M69 132h3v3H69V132M75 132h3v3H75V132M78 132h3v3H78V132M81 132h3v3H81V132M84 132h3v3H84V132M96 132h3v3H96V132M102 132h3v3H102V132M105 132h3v3H105V132M108 132h3v3H108V132M114 132h3v3H114V132M117 132h3v3H117V132M120 132h3v3H120V132M123 132h3v3H123V132M126 132h3v3H126V132M135 132h3v3H135V132M141 132h3v3H141V132M147 132h3v3H147V132M150 132h3v3H150V132M153 132h3v3H153V132M162 132h3v3H162V132M165 132h3v3H165V132M168 132h3v3H168V132M174 132h3v3H174V132M177 132h3v3H177V132M180 132h3v3H180V132M189 132h3v3H189V132M192 132h3v3H192V132M195 132h3v3H195V132M198 132h3v3H198V132M201 132h3v3H201V132M204 132h3v3H204V132M207 132h3v3H207V132M210 132h3v3H210V132M213 132h3v3H213V132M216 132h3v3H216V132M222 132h3v3H222V132M228 132h3v3H228V132M234 132h3v3H234V132M237 132h3v3H237V132M246 132h3v3H246V132M249 132h3v3H249V132M252 132h3v3H252V132M261 132h3v3H261V132M264 132h3v3H264V132M270 132h3v3H270V132M276 132h3v3H276V132M12 135h3v3H12V135M15 135h3v3H15V135M27 135h3v3H27V135M33 135h3v3H33V135M36 135h3v3H36V135M39 135h3v3H39V135M42 135h3v3H42V135M45 135h3v3H45V135M51 135h3v3H51V135M60 135h3v3H60V135M66 135h3v3H66V135M69 135h3v3H69V135M75 135h3v3H75V135M87 135h3v3H87V135M90 135h3v3H90V135M93 135h3v3H93V135M102 135h3v3H102V135M111 135h3v3H111V135M123 135h3v3H123V135M126 135h3v3H126V135M132 135h3v3H132V135M135 135h3v3H135V135M144 135h3v3H144V135M147 135h3v3H147V135M150 135h3v3H150V135M153 135h3v3H153V135M156 135h3v3H156V135M159 135h3v3H159V135M162 135h3v3H162V135M168 135h3v3H168V135M171 135h3v3H171V135M177 135h3v3H177V135M180 135h3v3H180V135M189 135h3v3H189V135M192 135h3v3H192V135M198 135h3v3H198V135M201 135h3v3H201V135M210 135h3v3H210V135M213 135h3v3H213V135M219 135h3v3H219V135M225 135h3v3H225V135M228 135h3v3H228V135M231 135h3v3H231V135M234 135h3v3H234V135M237 135h3v3H237V135M240 135h3v3H240V135M246 135h3v3H246V135M249 135h3v3H249V135M252 135h3v3H252V135M255 135h3v3H255V135M258 135h3v3H258V135M267 135h3v3H267V135M273 135h3v3H273V135M276 135h3v3H276V135M12 138h3v3H12V138M15 138h3v3H15V138M18 138h3v3H18V138M24 138h3v3H24V138M30 138h3v3H30V138M33 138h3v3H33V138M45 138h3v3H45V138M48 138h3v3H48V138M51 138h3v3H51V138M60 138h3v3H60V138M66 138h3v3H66V138M75 138h3v3H75V138M78 138h3v3H78V138M81 138h3v3H81V138M84 138h3v3H84V138M87 138h3v3H87V138M99 138h3v3H99V138M111 138h3v3H111V138M114 138h3v3H114V138M117 138h3v3H117V138M129 138h3v3H129V138M132 138h3v3H132V138M138 138h3v3H138V138M141 138h3v3H141V138M144 138h3v3H144V138M147 138h3v3H147V138M153 138h3v3H153V138M156 138h3v3H156V138M159 138h3v3H159V138M171 138h3v3H171V138M174 138h3v3H174V138M180 138h3v3H180V138M189 138h3v3H189V138M192 138h3v3H192V138M198 138h3v3H198V138M204 138h3v3H204V138M210 138h3v3H210V138M213 138h3v3H213V138M222 138h3v3H222V138M225 138h3v3H225V138M240 138h3v3H240V138M258 138h3v3H258V138M267 138h3v3H267V138M270 138h3v3H270V138M273 138h3v3H273V138M12 141h3v3H12V141M15 141h3v3H15V141M18 141h3v3H18V141M24 141h3v3H24V141M36 141h3v3H36V141M39 141h3v3H39V141M54 141h3v3H54V141M57 141h3v3H57V141M60 141h3v3H60V141M63 141h3v3H63V141M66 141h3v3H66V141M78 141h3v3H78V141M90 141h3v3H90V141M96 141h3v3H96V141M105 141h3v3H105V141M108 141h3v3H108V141M111 141h3v3H111V141M114 141h3v3H114V141M120 141h3v3H120V141M123 141h3v3H123V141M129 141h3v3H129V141M132 141h3v3H132V141M135 141h3v3H135V141M141 141h3v3H141V141M144 141h3v3H144V141M147 141h3v3H147V141M150 141h3v3H150V141M153 141h3v3H153V141M159 141h3v3H159V141M162 141h3v3H162V141M165 141h3v3H165V141M168 141h3v3H168V141M177 141h3v3H177V141M180 141h3v3H180V141M183 141h3v3H183V141M186 141h3v3H186V141M189 141h3v3H189V141M192 141h3v3H192V141M213 141h3v3H213V141M219 141h3v3H219V141M225 141h3v3H225V141M231 141h3v3H231V141M234 141h3v3H234V141M237 141h3v3H237V141M240 141h3v3H240V141M243 141h3v3H243V141M255 141h3v3H255V141M261 141h3v3H261V141M270 141h3v3H270V141M273 141h3v3H273V141M12 144h3v3H12V144M15 144h3v3H15V144M18 144h3v3H18V144M30 144h3v3H30V144M36 144h3v3H36V144M39 144h3v3H39V144M45 144h3v3H45V144M48 144h3v3H48V144M54 144h3v3H54V144M57 144h3v3H57V144M60 144h3v3H60V144M69 144h3v3H69V144M72 144h3v3H72V144M78 144h3v3H78V144M84 144h3v3H84V144M87 144h3v3H87V144M96 144h3v3H96V144M99 144h3v3H99V144M102 144h3v3H102V144M105 144h3v3H105V144M108 144h3v3H108V144M117 144h3v3H117V144M120 144h3v3H120V144M138 144h3v3H138V144M144 144h3v3H144V144M147 144h3v3H147V144M153 144h3v3H153V144M156 144h3v3H156V144M159 144h3v3H159V144M162 144h3v3H162V144M171 144h3v3H171V144M186 144h3v3H186V144M192 144h3v3H192V144M201 144h3v3H201V144M204 144h3v3H204V144M207 144h3v3H207V144M210 144h3v3H210V144M213 144h3v3H213V144M219 144h3v3H219V144M225 144h3v3H225V144M228 144h3v3H228V144M240 144h3v3H240V144M246 144h3v3H246V144M264 144h3v3H264V144M267 144h3v3H267V144M15 147h3v3H15V147M33 147h3v3H33V147M36 147h3v3H36V147M39 147h3v3H39V147M48 147h3v3H48V147M51 147h3v3H51V147M60 147h3v3H60V147M63 147h3v3H63V147M66 147h3v3H66V147M69 147h3v3H69V147M75 147h3v3H75V147M78 147h3v3H78V147M81 147h3v3H81V147M84 147h3v3H84V147M87 147h3v3H87V147M90 147h3v3H90V147M99 147h3v3H99V147M105 147h3v3H105V147M117 147h3v3H117V147M123 147h3v3H123V147M126 147h3v3H126V147M129 147h3v3H129V147M135 147h3v3H135V147M138 147h3v3H138V147M144 147h3v3H144V147M159 147h3v3H159V147M162 147h3v3H162V147M165 147h3v3H165V147M171 147h3v3H171V147M174 147h3v3H174V147M180 147h3v3H180V147M183 147h3v3H183V147M186 147h3v3H186V147M195 147h3v3H195V147M198 147h3v3H198V147M204 147h3v3H204V147M225 147h3v3H225V147M246 147h3v3H246V147M249 147h3v3H249V147M252 147h3v3H252V147M267 147h3v3H267V147M15 150h3v3H15V150M24 150h3v3H24V150M27 150h3v3H27V150M30 150h3v3H30V150M36 150h3v3H36V150M39 150h3v3H39V150M42 150h3v3H42V150M45 150h3v3H45V150M48 150h3v3H48V150M54 150h3v3H54V150M63 150h3v3H63V150M66 150h3v3H66V150M78 150h3v3H78V150M90 150h3v3H90V150M99 150h3v3H99V150M105 150h3v3H105V150M111 150h3v3H111V150M129 150h3v3H129V150M132 150h3v3H132V150M135 150h3v3H135V150M144 150h3v3H144V150M150 150h3v3H150V150M156 150h3v3H156V150M162 150h3v3H162V150M168 150h3v3H168V150M174 150h3v3H174V150M183 150h3v3H183V150M201 150h3v3H201V150M204 150h3v3H204V150M207 150h3v3H207V150M213 150h3v3H213V150M222 150h3v3H222V150M225 150h3v3H225V150M228 150h3v3H228V150M231 150h3v3H231V150M234 150h3v3H234V150M240 150h3v3H240V150M243 150h3v3H243V150M249 150h3v3H249V150M252 150h3v3H252V150M255 150h3v3H255V150M258 150h3v3H258V150M276 150h3v3H276V150M12 153h3v3H12V153M21 153h3v3H21V153M27 153h3v3H27V153M36 153h3v3H36V153M45 153h3v3H45V153M51 153h3v3H51V153M54 153h3v3H54V153M57 153h3v3H57V153M66 153h3v3H66V153M78 153h3v3H78V153M84 153h3v3H84V153M87 153h3v3H87V153M90 153h3v3H90V153M93 153h3v3H93V153M96 153h3v3H96V153M108 153h3v3H108V153M111 153h3v3H111V153M117 153h3v3H117V153M126 153h3v3H126V153M129 153h3v3H129V153M132 153h3v3H132V153M135 153h3v3H135V153M138 153h3v3H138V153M144 153h3v3H144V153M159 153h3v3H159V153M162 153h3v3H162V153M165 153h3v3H165V153M168 153h3v3H168V153M180 153h3v3H180V153M183 153h3v3H183V153M186 153h3v3H186V153M189 153h3v3H189V153M192 153h3v3H192V153M201 153h3v3H201V153M204 153h3v3H204V153M213 153h3v3H213V153M216 153h3v3H216V153M219 153h3v3H219V153M222 153h3v3H222V153M228 153h3v3H228V153M234 153h3v3H234V153M237 153h3v3H237V153M240 153h3v3H240V153M243 153h3v3H243V153M249 153h3v3H249V153M252 153h3v3H252V153M255 153h3v3H255V153M258 153h3v3H258V153M261 153h3v3H261V153M270 153h3v3H270V153M273 153h3v3H273V153M276 153h3v3H276V153M18 156h3v3H18V156M21 156h3v3H21V156M30 156h3v3H30V156M33 156h3v3H33V156M39 156h3v3H39V156M48 156h3v3H48V156M51 156h3v3H51V156M60 156h3v3H60V156M63 156h3v3H63V156M66 156h3v3H66V156M72 156h3v3H72V156M75 156h3v3H75V156M78 156h3v3H78V156M81 156h3v3H81V156M90 156h3v3H90V156M108 156h3v3H108V156M111 156h3v3H111V156M120 156h3v3H120V156M129 156h3v3H129V156M132 156h3v3H132V156M138 156h3v3H138V156M141 156h3v3H141V156M156 156h3v3H156V156M159 156h3v3H159V156M168 156h3v3H168V156M171 156h3v3H171V156M174 156h3v3H174V156M177 156h3v3H177V156M183 156h3v3H183V156M189 156h3v3H189V156M192 156h3v3H192V156M195 156h3v3H195V156M204 156h3v3H204V156M216 156h3v3H216V156M219 156h3v3H219V156M222 156h3v3H222V156M225 156h3v3H225V156M228 156h3v3H228V156M231 156h3v3H231V156M234 156h3v3H234V156M240 156h3v3H240V156M243 156h3v3H243V156M246 156h3v3H246V156M261 156h3v3H261V156M264 156h3v3H264V156M267 156h3v3H267V156M270 156h3v3H270V156M15 159h3v3H15V159M18 159h3v3H18V159M42 159h3v3H42V159M51 159h3v3H51V159M54 159h3v3H54V159M57 159h3v3H57V159M63 159h3v3H63V159M75 159h3v3H75V159M81 159h3v3H81V159M84 159h3v3H84V159M96 159h3v3H96V159M102 159h3v3H102V159M105 159h3v3H105V159M108 159h3v3H108V159M114 159h3v3H114V159M117 159h3v3H117V159M132 159h3v3H132V159M138 159h3v3H138V159M141 159h3v3H141V159M144 159h3v3H144V159M150 159h3v3H150V159M156 159h3v3H156V159M159 159h3v3H159V159M171 159h3v3H171V159M180 159h3v3H180V159M183 159h3v3H183V159M186 159h3v3H186V159M189 159h3v3H189V159M195 159h3v3H195V159M198 159h3v3H198V159M204 159h3v3H204V159M207 159h3v3H207V159M210 159h3v3H210V159M213 159h3v3H213V159M219 159h3v3H219V159M225 159h3v3H225V159M231 159h3v3H231V159M237 159h3v3H237V159M243 159h3v3H243V159M252 159h3v3H252V159M258 159h3v3H258V159M261 159h3v3H261V159M264 159h3v3H264V159M267 159h3v3H267V159M276 159h3v3H276V159M15 162h3v3H15V162M18 162h3v3H18V162M21 162h3v3H21V162M24 162h3v3H24V162M30 162h3v3H30V162M33 162h3v3H33V162M39 162h3v3H39V162M42 162h3v3H42V162M54 162h3v3H54V162M60 162h3v3H60V162M66 162h3v3H66V162M72 162h3v3H72V162M75 162h3v3H75V162M78 162h3v3H78V162M84 162h3v3H84V162M87 162h3v3H87V162M90 162h3v3H90V162M96 162h3v3H96V162M99 162h3v3H99V162M111 162h3v3H111V162M117 162h3v3H117V162M126 162h3v3H126V162M135 162h3v3H135V162M141 162h3v3H141V162M144 162h3v3H144V162M150 162h3v3H150V162M156 162h3v3H156V162M162 162h3v3H162V162M165 162h3v3H165V162M168 162h3v3H168V162M171 162h3v3H171V162M180 162h3v3H180V162M186 162h3v3H186V162M192 162h3v3H192V162M204 162h3v3H204V162M207 162h3v3H207V162M213 162h3v3H213V162M219 162h3v3H219V162M225 162h3v3H225V162M234 162h3v3H234V162M237 162h3v3H237V162M240 162h3v3H240V162M243 162h3v3H243V162M249 162h3v3H249V162M252 162h3v3H252V162M255 162h3v3H255V162M273 162h3v3H273V162M12 165h3v3H12V165M21 165h3v3H21V165M24 165h3v3H24V165M33 165h3v3H33V165M39 165h3v3H39V165M45 165h3v3H45V165M48 165h3v3H48V165M54 165h3v3H54V165M63 165h3v3H63V165M78 165h3v3H78V165M93 165h3v3H93V165M99 165h3v3H99V165M102 165h3v3H102V165M108 165h3v3H108V165M114 165h3v3H114V165M117 165h3v3H117V165M120 165h3v3H120V165M126 165h3v3H126V165M129 165h3v3H129V165M135 165h3v3H135V165M138 165h3v3H138V165M141 165h3v3H141V165M144 165h3v3H144V165M147 165h3v3H147V165M150 165h3v3H150V165M153 165h3v3H153V165M159 165h3v3H159V165M165 165h3v3H165V165M171 165h3v3H171V165M180 165h3v3H180V165M183 165h3v3H183V165M192 165h3v3H192V165M201 165h3v3H201V165M219 165h3v3H219V165M225 165h3v3H225V165M231 165h3v3H231V165M237 165h3v3H237V165M240 165h3v3H240V165M243 165h3v3H243V165M249 165h3v3H249V165M252 165h3v3H252V165M255 165h3v3H255V165M258 165h3v3H258V165M261 165h3v3H261V165M264 165h3v3H264V165M267 165h3v3H267V165M270 165h3v3H270V165M273 165h3v3H273V165M276 165h3v3H276V165M18 168h3v3H18V168M24 168h3v3H24V168M30 168h3v3H30V168M33 168h3v3H33V168M36 168h3v3H36V168M39 168h3v3H39V168M42 168h3v3H42V168M48 168h3v3H48V168M51 168h3v3H51V168M54 168h3v3H54V168M57 168h3v3H57V168M63 168h3v3H63V168M72 168h3v3H72V168M75 168h3v3H75V168M78 168h3v3H78V168M81 168h3v3H81V168M90 168h3v3H90V168M99 168h3v3H99V168M108 168h3v3H108V168M123 168h3v3H123V168M126 168h3v3H126V168M135 168h3v3H135V168M138 168h3v3H138V168M141 168h3v3H141V168M144 168h3v3H144V168M147 168h3v3H147V168M156 168h3v3H156V168M159 168h3v3H159V168M162 168h3v3H162V168M174 168h3v3H174V168M177 168h3v3H177V168M180 168h3v3H180V168M183 168h3v3H183V168M186 168h3v3H186V168M189 168h3v3H189V168M195 168h3v3H195V168M204 168h3v3H204V168M210 168h3v3H210V168M216 168h3v3H216V168M228 168h3v3H228V168M234 168h3v3H234V168M240 168h3v3H240V168M243 168h3v3H243V168M246 168h3v3H246V168M252 168h3v3H252V168M255 168h3v3H255V168M261 168h3v3H261V168M267 168h3v3H267V168M270 168h3v3H270V168M276 168h3v3H276V168M21 171h3v3H21V171M27 171h3v3H27V171M33 171h3v3H33V171M54 171h3v3H54V171M60 171h3v3H60V171M63 171h3v3H63V171M72 171h3v3H72V171M99 171h3v3H99V171M108 171h3v3H108V171M117 171h3v3H117V171M120 171h3v3H120V171M123 171h3v3H123V171M126 171h3v3H126V171M129 171h3v3H129V171M159 171h3v3H159V171M174 171h3v3H174V171M177 171h3v3H177V171M180 171h3v3H180V171M186 171h3v3H186V171M195 171h3v3H195V171M204 171h3v3H204V171M207 171h3v3H207V171M210 171h3v3H210V171M213 171h3v3H213V171M216 171h3v3H216V171M225 171h3v3H225V171M228 171h3v3H228V171M234 171h3v3H234V171M243 171h3v3H243V171M249 171h3v3H249V171M252 171h3v3H252V171M255 171h3v3H255V171M261 171h3v3H261V171M267 171h3v3H267V171M270 171h3v3H270V171M273 171h3v3H273V171M15 174h3v3H15V174M21 174h3v3H21V174M24 174h3v3H24V174M27 174h3v3H27V174M30 174h3v3H30V174M33 174h3v3H33V174M36 174h3v3H36V174M42 174h3v3H42V174M48 174h3v3H48V174M54 174h3v3H54V174M63 174h3v3H63V174M75 174h3v3H75V174M81 174h3v3H81V174M87 174h3v3H87V174M90 174h3v3H90V174M93 174h3v3H93V174M96 174h3v3H96V174M99 174h3v3H99V174M102 174h3v3H102V174M105 174h3v3H105V174M108 174h3v3H108V174M111 174h3v3H111V174M114 174h3v3H114V174M120 174h3v3H120V174M126 174h3v3H126V174M129 174h3v3H129V174M132 174h3v3H132V174M135 174h3v3H135V174M138 174h3v3H138V174M147 174h3v3H147V174M150 174h3v3H150V174M153 174h3v3H153V174M159 174h3v3H159V174M162 174h3v3H162V174M165 174h3v3H165V174M174 174h3v3H174V174M177 174h3v3H177V174M180 174h3v3H180V174M183 174h3v3H183V174M186 174h3v3H186V174M189 174h3v3H189V174M195 174h3v3H195V174M201 174h3v3H201V174M204 174h3v3H204V174M207 174h3v3H207V174M216 174h3v3H216V174M219 174h3v3H219V174M222 174h3v3H222V174M225 174h3v3H225V174M228 174h3v3H228V174M237 174h3v3H237V174M243 174h3v3H243V174M249 174h3v3H249V174M252 174h3v3H252V174M255 174h3v3H255V174M258 174h3v3H258V174M261 174h3v3H261V174M264 174h3v3H264V174M267 174h3v3H267V174M21 177h3v3H21V177M24 177h3v3H24V177M36 177h3v3H36V177M39 177h3v3H39V177M45 177h3v3H45V177M48 177h3v3H48V177M51 177h3v3H51V177M60 177h3v3H60V177M66 177h3v3H66V177M69 177h3v3H69V177M72 177h3v3H72V177M81 177h3v3H81V177M96 177h3v3H96V177M108 177h3v3H108V177M120 177h3v3H120V177M123 177h3v3H123V177M126 177h3v3H126V177M129 177h3v3H129V177M132 177h3v3H132V177M138 177h3v3H138V177M144 177h3v3H144V177M150 177h3v3H150V177M153 177h3v3H153V177M162 177h3v3H162V177M165 177h3v3H165V177M168 177h3v3H168V177M171 177h3v3H171V177M174 177h3v3H174V177M186 177h3v3H186V177M192 177h3v3H192V177M198 177h3v3H198V177M201 177h3v3H201V177M204 177h3v3H204V177M210 177h3v3H210V177M213 177h3v3H213V177M219 177h3v3H219V177M222 177h3v3H222V177M225 177h3v3H225V177M228 177h3v3H228V177M234 177h3v3H234V177M243 177h3v3H243V177M246 177h3v3H246V177M249 177h3v3H249V177M252 177h3v3H252V177M264 177h3v3H264V177M273 177h3v3H273V177M21 180h3v3H21V180M24 180h3v3H24V180M30 180h3v3H30V180M36 180h3v3H36V180M39 180h3v3H39V180M42 180h3v3H42V180M45 180h3v3H45V180M54 180h3v3H54V180M57 180h3v3H57V180M63 180h3v3H63V180M72 180h3v3H72V180M75 180h3v3H75V180M90 180h3v3H90V180M93 180h3v3H93V180M96 180h3v3H96V180M102 180h3v3H102V180M108 180h3v3H108V180M114 180h3v3H114V180M123 180h3v3H123V180M129 180h3v3H129V180M135 180h3v3H135V180M138 180h3v3H138V180M141 180h3v3H141V180M144 180h3v3H144V180M147 180h3v3H147V180M153 180h3v3H153V180M159 180h3v3H159V180M162 180h3v3H162V180M165 180h3v3H165V180M174 180h3v3H174V180M180 180h3v3H180V180M186 180h3v3H186V180M189 180h3v3H189V180M198 180h3v3H198V180M204 180h3v3H204V180M207 180h3v3H207V180M222 180h3v3H222V180M225 180h3v3H225V180M228 180h3v3H228V180M231 180h3v3H231V180M234 180h3v3H234V180M240 180h3v3H240V180M246 180h3v3H246V180M252 180h3v3H252V180M258 180h3v3H258V180M264 180h3v3H264V180M267 180h3v3H267V180M270 180h3v3H270V180M12 183h3v3H12V183M15 183h3v3H15V183M18 183h3v3H18V183M24 183h3v3H24V183M36 183h3v3H36V183M45 183h3v3H45V183M54 183h3v3H54V183M60 183h3v3H60V183M63 183h3v3H63V183M66 183h3v3H66V183M75 183h3v3H75V183M81 183h3v3H81V183M93 183h3v3H93V183M96 183h3v3H96V183M108 183h3v3H108V183M117 183h3v3H117V183M120 183h3v3H120V183M129 183h3v3H129V183M138 183h3v3H138V183M141 183h3v3H141V183M150 183h3v3H150V183M156 183h3v3H156V183M159 183h3v3H159V183M168 183h3v3H168V183M171 183h3v3H171V183M174 183h3v3H174V183M186 183h3v3H186V183M189 183h3v3H189V183M192 183h3v3H192V183M195 183h3v3H195V183M198 183h3v3H198V183M201 183h3v3H201V183M207 183h3v3H207V183M213 183h3v3H213V183M216 183h3v3H216V183M219 183h3v3H219V183M228 183h3v3H228V183M231 183h3v3H231V183M234 183h3v3H234V183M240 183h3v3H240V183M243 183h3v3H243V183M246 183h3v3H246V183M252 183h3v3H252V183M264 183h3v3H264V183M267 183h3v3H267V183M276 183h3v3H276V183M15 186h3v3H15V186M18 186h3v3H18V186M24 186h3v3H24V186M27 186h3v3H27V186M30 186h3v3H30V186M33 186h3v3H33V186M36 186h3v3H36V186M42 186h3v3H42V186M45 186h3v3H45V186M48 186h3v3H48V186M51 186h3v3H51V186M63 186h3v3H63V186M66 186h3v3H66V186M69 186h3v3H69V186M72 186h3v3H72V186M78 186h3v3H78V186M81 186h3v3H81V186M87 186h3v3H87V186M90 186h3v3H90V186M96 186h3v3H96V186M99 186h3v3H99V186M102 186h3v3H102V186M105 186h3v3H105V186M108 186h3v3H108V186M114 186h3v3H114V186M117 186h3v3H117V186M120 186h3v3H120V186M132 186h3v3H132V186M135 186h3v3H135V186M141 186h3v3H141V186M150 186h3v3H150V186M153 186h3v3H153V186M156 186h3v3H156V186M159 186h3v3H159V186M165 186h3v3H165V186M168 186h3v3H168V186M174 186h3v3H174V186M177 186h3v3H177V186M180 186h3v3H180V186M183 186h3v3H183V186M186 186h3v3H186V186M192 186h3v3H192V186M195 186h3v3H195V186M198 186h3v3H198V186M201 186h3v3H201V186M207 186h3v3H207V186M210 186h3v3H210V186M219 186h3v3H219V186M222 186h3v3H222V186M225 186h3v3H225V186M237 186h3v3H237V186M240 186h3v3H240V186M243 186h3v3H243V186M252 186h3v3H252V186M255 186h3v3H255V186M258 186h3v3H258V186M261 186h3v3H261V186M264 186h3v3H264V186M276 186h3v3H276V186M18 189h3v3H18V189M21 189h3v3H21V189M33 189h3v3H33V189M36 189h3v3H36V189M42 189h3v3H42V189M48 189h3v3H48V189M51 189h3v3H51V189M57 189h3v3H57V189M60 189h3v3H60V189M69 189h3v3H69V189M75 189h3v3H75V189M78 189h3v3H78V189M81 189h3v3H81V189M84 189h3v3H84V189M87 189h3v3H87V189M90 189h3v3H90V189M93 189h3v3H93V189M99 189h3v3H99V189M102 189h3v3H102V189M105 189h3v3H105V189M108 189h3v3H108V189M114 189h3v3H114V189M126 189h3v3H126V189M129 189h3v3H129V189M132 189h3v3H132V189M138 189h3v3H138V189M144 189h3v3H144V189M159 189h3v3H159V189M162 189h3v3H162V189M165 189h3v3H165V189M168 189h3v3H168V189M174 189h3v3H174V189M183 189h3v3H183V189M198 189h3v3H198V189M210 189h3v3H210V189M216 189h3v3H216V189M219 189h3v3H219V189M228 189h3v3H228V189M231 189h3v3H231V189M237 189h3v3H237V189M243 189h3v3H243V189M249 189h3v3H249V189M252 189h3v3H252V189M255 189h3v3H255V189M258 189h3v3H258V189M261 189h3v3H261V189M273 189h3v3H273V189M276 189h3v3H276V189M15 192h3v3H15V192M27 192h3v3H27V192M30 192h3v3H30V192M33 192h3v3H33V192M39 192h3v3H39V192M48 192h3v3H48V192M60 192h3v3H60V192M66 192h3v3H66V192M78 192h3v3H78V192M81 192h3v3H81V192M102 192h3v3H102V192M111 192h3v3H111V192M114 192h3v3H114V192M120 192h3v3H120V192M123 192h3v3H123V192M138 192h3v3H138V192M141 192h3v3H141V192M147 192h3v3H147V192M156 192h3v3H156V192M165 192h3v3H165V192M174 192h3v3H174V192M180 192h3v3H180V192M183 192h3v3H183V192M186 192h3v3H186V192M189 192h3v3H189V192M195 192h3v3H195V192M201 192h3v3H201V192M207 192h3v3H207V192M210 192h3v3H210V192M213 192h3v3H213V192M222 192h3v3H222V192M225 192h3v3H225V192M234 192h3v3H234V192M237 192h3v3H237V192M240 192h3v3H240V192M243 192h3v3H243V192M249 192h3v3H249V192M264 192h3v3H264V192M267 192h3v3H267V192M270 192h3v3H270V192M276 192h3v3H276V192M12 195h3v3H12V195M15 195h3v3H15V195M18 195h3v3H18V195M21 195h3v3H21V195M36 195h3v3H36V195M39 195h3v3H39V195M45 195h3v3H45V195M48 195h3v3H48V195M51 195h3v3H51V195M54 195h3v3H54V195M57 195h3v3H57V195M63 195h3v3H63V195M78 195h3v3H78V195M81 195h3v3H81V195M90 195h3v3H90V195M93 195h3v3H93V195M96 195h3v3H96V195M99 195h3v3H99V195M105 195h3v3H105V195M108 195h3v3H108V195M117 195h3v3H117V195M123 195h3v3H123V195M135 195h3v3H135V195M138 195h3v3H138V195M144 195h3v3H144V195M147 195h3v3H147V195M153 195h3v3H153V195M156 195h3v3H156V195M159 195h3v3H159V195M162 195h3v3H162V195M174 195h3v3H174V195M183 195h3v3H183V195M186 195h3v3H186V195M195 195h3v3H195V195M201 195h3v3H201V195M204 195h3v3H204V195M207 195h3v3H207V195M210 195h3v3H210V195M213 195h3v3H213V195M222 195h3v3H222V195M231 195h3v3H231V195M234 195h3v3H234V195M246 195h3v3H246V195M258 195h3v3H258V195M261 195h3v3H261V195M264 195h3v3H264V195M276 195h3v3H276V195M12 198h3v3H12V198M15 198h3v3H15V198M18 198h3v3H18V198M30 198h3v3H30V198M36 198h3v3H36V198M51 198h3v3H51V198M63 198h3v3H63V198M72 198h3v3H72V198M78 198h3v3H78V198M93 198h3v3H93V198M96 198h3v3H96V198M105 198h3v3H105V198M111 198h3v3H111V198M120 198h3v3H120V198M123 198h3v3H123V198M129 198h3v3H129V198M132 198h3v3H132V198M138 198h3v3H138V198M141 198h3v3H141V198M144 198h3v3H144V198M153 198h3v3H153V198M159 198h3v3H159V198M165 198h3v3H165V198M168 198h3v3H168V198M171 198h3v3H171V198M189 198h3v3H189V198M192 198h3v3H192V198M198 198h3v3H198V198M201 198h3v3H201V198M204 198h3v3H204V198M207 198h3v3H207V198M213 198h3v3H213V198M219 198h3v3H219V198M222 198h3v3H222V198M225 198h3v3H225V198M228 198h3v3H228V198M231 198h3v3H231V198M234 198h3v3H234V198M243 198h3v3H243V198M258 198h3v3H258V198M261 198h3v3H261V198M18 201h3v3H18V201M21 201h3v3H21V201M24 201h3v3H24V201M42 201h3v3H42V201M45 201h3v3H45V201M48 201h3v3H48V201M60 201h3v3H60V201M63 201h3v3H63V201M72 201h3v3H72V201M75 201h3v3H75V201M84 201h3v3H84V201M87 201h3v3H87V201M90 201h3v3H90V201M93 201h3v3H93V201M99 201h3v3H99V201M102 201h3v3H102V201M105 201h3v3H105V201M108 201h3v3H108V201M114 201h3v3H114V201M117 201h3v3H117V201M126 201h3v3H126V201M135 201h3v3H135V201M138 201h3v3H138V201M141 201h3v3H141V201M144 201h3v3H144V201M150 201h3v3H150V201M153 201h3v3H153V201M159 201h3v3H159V201M162 201h3v3H162V201M165 201h3v3H165V201M168 201h3v3H168V201M171 201h3v3H171V201M174 201h3v3H174V201M183 201h3v3H183V201M186 201h3v3H186V201M189 201h3v3H189V201M195 201h3v3H195V201M201 201h3v3H201V201M204 201h3v3H204V201M207 201h3v3H207V201M210 201h3v3H210V201M213 201h3v3H213V201M231 201h3v3H231V201M234 201h3v3H234V201M240 201h3v3H240V201M243 201h3v3H243V201M252 201h3v3H252V201M258 201h3v3H258V201M261 201h3v3H261V201M270 201h3v3H270V201M273 201h3v3H273V201M276 201h3v3H276V201M18 204h3v3H18V204M24 204h3v3H24V204M30 204h3v3H30V204M33 204h3v3H33V204M36 204h3v3H36V204M42 204h3v3H42V204M54 204h3v3H54V204M57 204h3v3H57V204M63 204h3v3H63V204M66 204h3v3H66V204M72 204h3v3H72V204M75 204h3v3H75V204M78 204h3v3H78V204M84 204h3v3H84V204M87 204h3v3H87V204M90 204h3v3H90V204M93 204h3v3H93V204M99 204h3v3H99V204M102 204h3v3H102V204M105 204h3v3H105V204M108 204h3v3H108V204M129 204h3v3H129V204M132 204h3v3H132V204M138 204h3v3H138V204M144 204h3v3H144V204M147 204h3v3H147V204M156 204h3v3H156V204M159 204h3v3H159V204M171 204h3v3H171V204M174 204h3v3H174V204M177 204h3v3H177V204M180 204h3v3H180V204M186 204h3v3H186V204M201 204h3v3H201V204M213 204h3v3H213V204M219 204h3v3H219V204M240 204h3v3H240V204M246 204h3v3H246V204M249 204h3v3H249V204M255 204h3v3H255V204M264 204h3v3H264V204M267 204h3v3H267V204M270 204h3v3H270V204M273 204h3v3H273V204M12 207h3v3H12V207M21 207h3v3H21V207M24 207h3v3H24V207M27 207h3v3H27V207M33 207h3v3H33V207M36 207h3v3H36V207M42 207h3v3H42V207M48 207h3v3H48V207M51 207h3v3H51V207M54 207h3v3H54V207M57 207h3v3H57V207M75 207h3v3H75V207M81 207h3v3H81V207M87 207h3v3H87V207M99 207h3v3H99V207M102 207h3v3H102V207M108 207h3v3H108V207M111 207h3v3H111V207M114 207h3v3H114V207M120 207h3v3H120V207M138 207h3v3H138V207M141 207h3v3H141V207M156 207h3v3H156V207M171 207h3v3H171V207M177 207h3v3H177V207M180 207h3v3H180V207M189 207h3v3H189V207M192 207h3v3H192V207M195 207h3v3H195V207M204 207h3v3H204V207M210 207h3v3H210V207M213 207h3v3H213V207M225 207h3v3H225V207M234 207h3v3H234V207M237 207h3v3H237V207M243 207h3v3H243V207M246 207h3v3H246V207M249 207h3v3H249V207M255 207h3v3H255V207M264 207h3v3H264V207M12 210h3v3H12V210M18 210h3v3H18V210M24 210h3v3H24V210M30 210h3v3H30V210M33 210h3v3H33V210M42 210h3v3H42V210M45 210h3v3H45V210M48 210h3v3H48V210M51 210h3v3H51V210M57 210h3v3H57V210M60 210h3v3H60V210M63 210h3v3H63V210M66 210h3v3H66V210M72 210h3v3H72V210M78 210h3v3H78V210M81 210h3v3H81V210M84 210h3v3H84V210M87 210h3v3H87V210M90 210h3v3H90V210M96 210h3v3H96V210M99 210h3v3H99V210M105 210h3v3H105V210M108 210h3v3H108V210M111 210h3v3H111V210M114 210h3v3H114V210M138 210h3v3H138V210M144 210h3v3H144V210M153 210h3v3H153V210M165 210h3v3H165V210M171 210h3v3H171V210M174 210h3v3H174V210M177 210h3v3H177V210M186 210h3v3H186V210M192 210h3v3H192V210M195 210h3v3H195V210M198 210h3v3H198V210M201 210h3v3H201V210M213 210h3v3H213V210M216 210h3v3H216V210M222 210h3v3H222V210M225 210h3v3H225V210M231 210h3v3H231V210M240 210h3v3H240V210M255 210h3v3H255V210M258 210h3v3H258V210M261 210h3v3H261V210M264 210h3v3H264V210M267 210h3v3H267V210M273 210h3v3H273V210M276 210h3v3H276V210M15 213h3v3H15V213M18 213h3v3H18V213M24 213h3v3H24V213M33 213h3v3H33V213M39 213h3v3H39V213M48 213h3v3H48V213M54 213h3v3H54V213M57 213h3v3H57V213M60 213h3v3H60V213M69 213h3v3H69V213M75 213h3v3H75V213M81 213h3v3H81V213M84 213h3v3H84V213M87 213h3v3H87V213M90 213h3v3H90V213M96 213h3v3H96V213M105 213h3v3H105V213M108 213h3v3H108V213M111 213h3v3H111V213M123 213h3v3H123V213M129 213h3v3H129V213M132 213h3v3H132V213M135 213h3v3H135V213M138 213h3v3H138V213M150 213h3v3H150V213M153 213h3v3H153V213M156 213h3v3H156V213M159 213h3v3H159V213M165 213h3v3H165V213M168 213h3v3H168V213M174 213h3v3H174V213M180 213h3v3H180V213M186 213h3v3H186V213M189 213h3v3H189V213M192 213h3v3H192V213M195 213h3v3H195V213M201 213h3v3H201V213M207 213h3v3H207V213M216 213h3v3H216V213M222 213h3v3H222V213M225 213h3v3H225V213M231 213h3v3H231V213M234 213h3v3H234V213M246 213h3v3H246V213M255 213h3v3H255V213M270 213h3v3H270V213M273 213h3v3H273V213M12 216h3v3H12V216M30 216h3v3H30V216M36 216h3v3H36V216M42 216h3v3H42V216M45 216h3v3H45V216M48 216h3v3H48V216M60 216h3v3H60V216M69 216h3v3H69V216M72 216h3v3H72V216M75 216h3v3H75V216M78 216h3v3H78V216M87 216h3v3H87V216M90 216h3v3H90V216M96 216h3v3H96V216M99 216h3v3H99V216M102 216h3v3H102V216M108 216h3v3H108V216M114 216h3v3H114V216M120 216h3v3H120V216M129 216h3v3H129V216M132 216h3v3H132V216M138 216h3v3H138V216M144 216h3v3H144V216M147 216h3v3H147V216M150 216h3v3H150V216M153 216h3v3H153V216M159 216h3v3H159V216M174 216h3v3H174V216M183 216h3v3H183V216M186 216h3v3H186V216M198 216h3v3H198V216M201 216h3v3H201V216M210 216h3v3H210V216M213 216h3v3H213V216M216 216h3v3H216V216M219 216h3v3H219V216M234 216h3v3H234V216M243 216h3v3H243V216M246 216h3v3H246V216M252 216h3v3H252V216M264 216h3v3H264V216M267 216h3v3H267V216M21 219h3v3H21V219M24 219h3v3H24V219M27 219h3v3H27V219M33 219h3v3H33V219M36 219h3v3H36V219M39 219h3v3H39V219M45 219h3v3H45V219M48 219h3v3H48V219M51 219h3v3H51V219M60 219h3v3H60V219M69 219h3v3H69V219M75 219h3v3H75V219M81 219h3v3H81V219M87 219h3v3H87V219M90 219h3v3H90V219M99 219h3v3H99V219M102 219h3v3H102V219M105 219h3v3H105V219M117 219h3v3H117V219M120 219h3v3H120V219M126 219h3v3H126V219M135 219h3v3H135V219M153 219h3v3H153V219M156 219h3v3H156V219M159 219h3v3H159V219M162 219h3v3H162V219M165 219h3v3H165V219M177 219h3v3H177V219M180 219h3v3H180V219M183 219h3v3H183V219M186 219h3v3H186V219M189 219h3v3H189V219M192 219h3v3H192V219M195 219h3v3H195V219M201 219h3v3H201V219M210 219h3v3H210V219M213 219h3v3H213V219M228 219h3v3H228V219M231 219h3v3H231V219M237 219h3v3H237V219M246 219h3v3H246V219M249 219h3v3H249V219M252 219h3v3H252V219M255 219h3v3H255V219M261 219h3v3H261V219M264 219h3v3H264V219M270 219h3v3H270V219M276 219h3v3H276V219M21 222h3v3H21V222M24 222h3v3H24V222M27 222h3v3H27V222M30 222h3v3H30V222M36 222h3v3H36V222M39 222h3v3H39V222M45 222h3v3H45V222M51 222h3v3H51V222M57 222h3v3H57V222M60 222h3v3H60V222M66 222h3v3H66V222M72 222h3v3H72V222M78 222h3v3H78V222M81 222h3v3H81V222M84 222h3v3H84V222M93 222h3v3H93V222M102 222h3v3H102V222M111 222h3v3H111V222M117 222h3v3H117V222M135 222h3v3H135V222M147 222h3v3H147V222M150 222h3v3H150V222M153 222h3v3H153V222M156 222h3v3H156V222M165 222h3v3H165V222M168 222h3v3H168V222M189 222h3v3H189V222M195 222h3v3H195V222M204 222h3v3H204V222M207 222h3v3H207V222M213 222h3v3H213V222M225 222h3v3H225V222M237 222h3v3H237V222M240 222h3v3H240V222M246 222h3v3H246V222M249 222h3v3H249V222M252 222h3v3H252V222M255 222h3v3H255V222M267 222h3v3H267V222M273 222h3v3H273V222M15 225h3v3H15V225M18 225h3v3H18V225M24 225h3v3H24V225M27 225h3v3H27V225M39 225h3v3H39V225M42 225h3v3H42V225M45 225h3v3H45V225M57 225h3v3H57V225M60 225h3v3H60V225M63 225h3v3H63V225M66 225h3v3H66V225M69 225h3v3H69V225M75 225h3v3H75V225M90 225h3v3H90V225M105 225h3v3H105V225M114 225h3v3H114V225M120 225h3v3H120V225M123 225h3v3H123V225M135 225h3v3H135V225M138 225h3v3H138V225M147 225h3v3H147V225M153 225h3v3H153V225M156 225h3v3H156V225M159 225h3v3H159V225M162 225h3v3H162V225M174 225h3v3H174V225M186 225h3v3H186V225M192 225h3v3H192V225M198 225h3v3H198V225M225 225h3v3H225V225M240 225h3v3H240V225M243 225h3v3H243V225M252 225h3v3H252V225M267 225h3v3H267V225M273 225h3v3H273V225M12 228h3v3H12V228M24 228h3v3H24V228M27 228h3v3H27V228M30 228h3v3H30V228M33 228h3v3H33V228M36 228h3v3H36V228M45 228h3v3H45V228M54 228h3v3H54V228M57 228h3v3H57V228M60 228h3v3H60V228M63 228h3v3H63V228M69 228h3v3H69V228M72 228h3v3H72V228M78 228h3v3H78V228M87 228h3v3H87V228M99 228h3v3H99V228M102 228h3v3H102V228M105 228h3v3H105V228M111 228h3v3H111V228M117 228h3v3H117V228M126 228h3v3H126V228M129 228h3v3H129V228M135 228h3v3H135V228M141 228h3v3H141V228M144 228h3v3H144V228M150 228h3v3H150V228M156 228h3v3H156V228M165 228h3v3H165V228M171 228h3v3H171V228M177 228h3v3H177V228M186 228h3v3H186V228M195 228h3v3H195V228M201 228h3v3H201V228M204 228h3v3H204V228M207 228h3v3H207V228M210 228h3v3H210V228M213 228h3v3H213V228M216 228h3v3H216V228M219 228h3v3H219V228M225 228h3v3H225V228M228 228h3v3H228V228M231 228h3v3H231V228M234 228h3v3H234V228M237 228h3v3H237V228M240 228h3v3H240V228M246 228h3v3H246V228M249 228h3v3H249V228M252 228h3v3H252V228M255 228h3v3H255V228M258 228h3v3H258V228M264 228h3v3H264V228M267 228h3v3H267V228M270 228h3v3H270V228M12 231h3v3H12V231M15 231h3v3H15V231M18 231h3v3H18V231M21 231h3v3H21V231M27 231h3v3H27V231M36 231h3v3H36V231M45 231h3v3H45V231M48 231h3v3H48V231M54 231h3v3H54V231M57 231h3v3H57V231M60 231h3v3H60V231M69 231h3v3H69V231M87 231h3v3H87V231M93 231h3v3H93V231M99 231h3v3H99V231M102 231h3v3H102V231M105 231h3v3H105V231M108 231h3v3H108V231M111 231h3v3H111V231M114 231h3v3H114V231M120 231h3v3H120V231M123 231h3v3H123V231M126 231h3v3H126V231M129 231h3v3H129V231M135 231h3v3H135V231M138 231h3v3H138V231M141 231h3v3H141V231M144 231h3v3H144V231M147 231h3v3H147V231M153 231h3v3H153V231M159 231h3v3H159V231M162 231h3v3H162V231M168 231h3v3H168V231M171 231h3v3H171V231M174 231h3v3H174V231M183 231h3v3H183V231M189 231h3v3H189V231M192 231h3v3H192V231M213 231h3v3H213V231M216 231h3v3H216V231M231 231h3v3H231V231M237 231h3v3H237V231M249 231h3v3H249V231M252 231h3v3H252V231M258 231h3v3H258V231M261 231h3v3H261V231M18 234h3v3H18V234M24 234h3v3H24V234M27 234h3v3H27V234M30 234h3v3H30V234M36 234h3v3H36V234M39 234h3v3H39V234M42 234h3v3H42V234M45 234h3v3H45V234M51 234h3v3H51V234M60 234h3v3H60V234M66 234h3v3H66V234M72 234h3v3H72V234M75 234h3v3H75V234M78 234h3v3H78V234M81 234h3v3H81V234M87 234h3v3H87V234M90 234h3v3H90V234M96 234h3v3H96V234M102 234h3v3H102V234M105 234h3v3H105V234M111 234h3v3H111V234M114 234h3v3H114V234M120 234h3v3H120V234M123 234h3v3H123V234M126 234h3v3H126V234M138 234h3v3H138V234M150 234h3v3H150V234M153 234h3v3H153V234M165 234h3v3H165V234M171 234h3v3H171V234M183 234h3v3H183V234M186 234h3v3H186V234M189 234h3v3H189V234M195 234h3v3H195V234M204 234h3v3H204V234M207 234h3v3H207V234M216 234h3v3H216V234M225 234h3v3H225V234M237 234h3v3H237V234M240 234h3v3H240V234M255 234h3v3H255V234M258 234h3v3H258V234M261 234h3v3H261V234M270 234h3v3H270V234M273 234h3v3H273V234M15 237h3v3H15V237M21 237h3v3H21V237M24 237h3v3H24V237M27 237h3v3H27V237M36 237h3v3H36V237M48 237h3v3H48V237M63 237h3v3H63V237M69 237h3v3H69V237M75 237h3v3H75V237M84 237h3v3H84V237M87 237h3v3H87V237M90 237h3v3H90V237M93 237h3v3H93V237M96 237h3v3H96V237M99 237h3v3H99V237M117 237h3v3H117V237M126 237h3v3H126V237M129 237h3v3H129V237M132 237h3v3H132V237M135 237h3v3H135V237M141 237h3v3H141V237M144 237h3v3H144V237M147 237h3v3H147V237M153 237h3v3H153V237M165 237h3v3H165V237M168 237h3v3H168V237M174 237h3v3H174V237M180 237h3v3H180V237M183 237h3v3H183V237M189 237h3v3H189V237M204 237h3v3H204V237M207 237h3v3H207V237M210 237h3v3H210V237M219 237h3v3H219V237M228 237h3v3H228V237M237 237h3v3H237V237M243 237h3v3H243V237M258 237h3v3H258V237M261 237h3v3H261V237M264 237h3v3H264V237M273 237h3v3H273V237M276 237h3v3H276V237M12 240h3v3H12V240M21 240h3v3H21V240M24 240h3v3H24V240M30 240h3v3H30V240M33 240h3v3H33V240M36 240h3v3H36V240M39 240h3v3H39V240M42 240h3v3H42V240M45 240h3v3H45V240M60 240h3v3H60V240M66 240h3v3H66V240M69 240h3v3H69V240M72 240h3v3H72V240M75 240h3v3H75V240M78 240h3v3H78V240M84 240h3v3H84V240M102 240h3v3H102V240M105 240h3v3H105V240M108 240h3v3H108V240M117 240h3v3H117V240M120 240h3v3H120V240M135 240h3v3H135V240M138 240h3v3H138V240M141 240h3v3H141V240M147 240h3v3H147V240M150 240h3v3H150V240M162 240h3v3H162V240M171 240h3v3H171V240M177 240h3v3H177V240M180 240h3v3H180V240M183 240h3v3H183V240M192 240h3v3H192V240M195 240h3v3H195V240M198 240h3v3H198V240M201 240h3v3H201V240M216 240h3v3H216V240M222 240h3v3H222V240M228 240h3v3H228V240M231 240h3v3H231V240M240 240h3v3H240V240M246 240h3v3H246V240M249 240h3v3H249V240M252 240h3v3H252V240M267 240h3v3H267V240M270 240h3v3H270V240M273 240h3v3H273V240M276 240h3v3H276V240M12 243h3v3H12V243M15 243h3v3H15V243M27 243h3v3H27V243M33 243h3v3H33V243M36 243h3v3H36V243M45 243h3v3H45V243M48 243h3v3H48V243M51 243h3v3H51V243M54 243h3v3H54V243M57 243h3v3H57V243M63 243h3v3H63V243M66 243h3v3H66V243M69 243h3v3H69V243M81 243h3v3H81V243M84 243h3v3H84V243M99 243h3v3H99V243M108 243h3v3H108V243M111 243h3v3H111V243M117 243h3v3H117V243M138 243h3v3H138V243M141 243h3v3H141V243M144 243h3v3H144V243M147 243h3v3H147V243M150 243h3v3H150V243M153 243h3v3H153V243M156 243h3v3H156V243M159 243h3v3H159V243M168 243h3v3H168V243M171 243h3v3H171V243M174 243h3v3H174V243M183 243h3v3H183V243M192 243h3v3H192V243M195 243h3v3H195V243M210 243h3v3H210V243M213 243h3v3H213V243M216 243h3v3H216V243M219 243h3v3H219V243M225 243h3v3H225V243M234 243h3v3H234V243M240 243h3v3H240V243M246 243h3v3H246V243M252 243h3v3H252V243M267 243h3v3H267V243M270 243h3v3H270V243M273 243h3v3H273V243M276 243h3v3H276V243M12 246h3v3H12V246M21 246h3v3H21V246M30 246h3v3H30V246M33 246h3v3H33V246M39 246h3v3H39V246M42 246h3v3H42V246M45 246h3v3H45V246M51 246h3v3H51V246M57 246h3v3H57V246M69 246h3v3H69V246M78 246h3v3H78V246M81 246h3v3H81V246M93 246h3v3H93V246M99 246h3v3H99V246M105 246h3v3H105V246M111 246h3v3H111V246M117 246h3v3H117V246M126 246h3v3H126V246M129 246h3v3H129V246M132 246h3v3H132V246M144 246h3v3H144V246M147 246h3v3H147V246M150 246h3v3H150V246M159 246h3v3H159V246M168 246h3v3H168V246M171 246h3v3H171V246M177 246h3v3H177V246M183 246h3v3H183V246M186 246h3v3H186V246M189 246h3v3H189V246M192 246h3v3H192V246M204 246h3v3H204V246M213 246h3v3H213V246M216 246h3v3H216V246M219 246h3v3H219V246M225 246h3v3H225V246M237 246h3v3H237V246M240 246h3v3H240V246M243 246h3v3H243V246M249 246h3v3H249V246M252 246h3v3H252V246M255 246h3v3H255V246M258 246h3v3H258V246M261 246h3v3H261V246M267 246h3v3H267V246M270 246h3v3H270V246M273 246h3v3H273V246M12 249h3v3H12V249M15 249h3v3H15V249M24 249h3v3H24V249M27 249h3v3H27V249M33 249h3v3H33V249M42 249h3v3H42V249M45 249h3v3H45V249M48 249h3v3H48V249M57 249h3v3H57V249M60 249h3v3H60V249M63 249h3v3H63V249M75 249h3v3H75V249M78 249h3v3H78V249M81 249h3v3H81V249M90 249h3v3H90V249M105 249h3v3H105V249M114 249h3v3H114V249M117 249h3v3H117V249M129 249h3v3H129V249M132 249h3v3H132V249M135 249h3v3H135V249M147 249h3v3H147V249M153 249h3v3H153V249M162 249h3v3H162V249M165 249h3v3H165V249M174 249h3v3H174V249M177 249h3v3H177V249M186 249h3v3H186V249M195 249h3v3H195V249M198 249h3v3H198V249M201 249h3v3H201V249M210 249h3v3H210V249M222 249h3v3H222V249M225 249h3v3H225V249M231 249h3v3H231V249M237 249h3v3H237V249M240 249h3v3H240V249M243 249h3v3H243V249M249 249h3v3H249V249M255 249h3v3H255V249M258 249h3v3H258V249M267 249h3v3H267V249M270 249h3v3H270V249M276 249h3v3H276V249M12 252h3v3H12V252M21 252h3v3H21V252M30 252h3v3H30V252M39 252h3v3H39V252M48 252h3v3H48V252M57 252h3v3H57V252M60 252h3v3H60V252M66 252h3v3H66V252M72 252h3v3H72V252M75 252h3v3H75V252M78 252h3v3H78V252M81 252h3v3H81V252M84 252h3v3H84V252M87 252h3v3H87V252M96 252h3v3H96V252M99 252h3v3H99V252M102 252h3v3H102V252M105 252h3v3H105V252M108 252h3v3H108V252M111 252h3v3H111V252M120 252h3v3H120V252M123 252h3v3H123V252M126 252h3v3H126V252M129 252h3v3H129V252M132 252h3v3H132V252M147 252h3v3H147V252M159 252h3v3H159V252M171 252h3v3H171V252M174 252h3v3H174V252M177 252h3v3H177V252M180 252h3v3H180V252M183 252h3v3H183V252M186 252h3v3H186V252M195 252h3v3H195V252M198 252h3v3H198V252M201 252h3v3H201V252M207 252h3v3H207V252M216 252h3v3H216V252M219 252h3v3H219V252M225 252h3v3H225V252M228 252h3v3H228V252M252 252h3v3H252V252M255 252h3v3H255V252M258 252h3v3H258V252M261 252h3v3H261V252M264 252h3v3H264V252M36 255h3v3H36V255M54 255h3v3H54V255M72 255h3v3H72V255M78 255h3v3H78V255M84 255h3v3H84V255M87 255h3v3H87V255M90 255h3v3H90V255M96 255h3v3H96V255M108 255h3v3H108V255M120 255h3v3H120V255M126 255h3v3H126V255M138 255h3v3H138V255M141 255h3v3H141V255M147 255h3v3H147V255M150 255h3v3H150V255M153 255h3v3H153V255M159 255h3v3H159V255M162 255h3v3H162V255M165 255h3v3H165V255M168 255h3v3H168V255M174 255h3v3H174V255M186 255h3v3H186V255M189 255h3v3H189V255M192 255h3v3H192V255M201 255h3v3H201V255M204 255h3v3H204V255M210 255h3v3H210V255M222 255h3v3H222V255M228 255h3v3H228V255M231 255h3v3H231V255M243 255h3v3H243V255M252 255h3v3H252V255M264 255h3v3H264V255M270 255h3v3H270V255M273 255h3v3H273V255M276 255h3v3H276V255M12 258h3v3H12V258M15 258h3v3H15V258M18 258h3v3H18V258M21 258h3v3H21V258M24 258h3v3H24V258M27 258h3v3H27V258M30 258h3v3H30V258M36 258h3v3H36V258M39 258h3v3H39V258M42 258h3v3H42V258M48 258h3v3H48V258M51 258h3v3H51V258M57 258h3v3H57V258M60 258h3v3H60V258M66 258h3v3H66V258M75 258h3v3H75V258M81 258h3v3H81V258M84 258h3v3H84V258M87 258h3v3H87V258M96 258h3v3H96V258M102 258h3v3H102V258M108 258h3v3H108V258M111 258h3v3H111V258M117 258h3v3H117V258M126 258h3v3H126V258M129 258h3v3H129V258M135 258h3v3H135V258M138 258h3v3H138V258M141 258h3v3H141V258M144 258h3v3H144V258M159 258h3v3H159V258M171 258h3v3H171V258M174 258h3v3H174V258M180 258h3v3H180V258M186 258h3v3H186V258M192 258h3v3H192V258M195 258h3v3H195V258M198 258h3v3H198V258M207 258h3v3H207V258M210 258h3v3H210V258M216 258h3v3H216V258M237 258h3v3H237V258M240 258h3v3H240V258M243 258h3v3H243V258M252 258h3v3H252V258M258 258h3v3H258V258M264 258h3v3H264V258M267 258h3v3H267V258M12 261h3v3H12V261M30 261h3v3H30V261M42 261h3v3H42V261M45 261h3v3H45V261M48 261h3v3H48V261M54 261h3v3H54V261M66 261h3v3H66V261M69 261h3v3H69V261M72 261h3v3H72V261M75 261h3v3H75V261M87 261h3v3H87V261M96 261h3v3H96V261M108 261h3v3H108V261M114 261h3v3H114V261M117 261h3v3H117V261M120 261h3v3H120V261M123 261h3v3H123V261M126 261h3v3H126V261M132 261h3v3H132V261M138 261h3v3H138V261M144 261h3v3H144V261M150 261h3v3H150V261M153 261h3v3H153V261M156 261h3v3H156V261M162 261h3v3H162V261M165 261h3v3H165V261M171 261h3v3H171V261M174 261h3v3H174V261M186 261h3v3H186V261M189 261h3v3H189V261M195 261h3v3H195V261M198 261h3v3H198V261M201 261h3v3H201V261M204 261h3v3H204V261M213 261h3v3H213V261M216 261h3v3H216V261M219 261h3v3H219V261M222 261h3v3H222V261M225 261h3v3H225V261M228 261h3v3H228V261M237 261h3v3H237V261M240 261h3v3H240V261M249 261h3v3H249V261M252 261h3v3H252V261M264 261h3v3H264V261M270 261h3v3H270V261M273 261h3v3H273V261M12 264h3v3H12V264M18 264h3v3H18V264M21 264h3v3H21V264M24 264h3v3H24V264M30 264h3v3H30V264M36 264h3v3H36V264M45 264h3v3H45V264M54 264h3v3H54V264M78 264h3v3H78V264M84 264h3v3H84V264M93 264h3v3H93V264M96 264h3v3H96V264M99 264h3v3H99V264M102 264h3v3H102V264M105 264h3v3H105V264M108 264h3v3H108V264M114 264h3v3H114V264M126 264h3v3H126V264M132 264h3v3H132V264M138 264h3v3H138V264M141 264h3v3H141V264M144 264h3v3H144V264M159 264h3v3H159V264M162 264h3v3H162V264M165 264h3v3H165V264M168 264h3v3H168V264M171 264h3v3H171V264M174 264h3v3H174V264M177 264h3v3H177V264M180 264h3v3H180V264M183 264h3v3H183V264M186 264h3v3H186V264M189 264h3v3H189V264M192 264h3v3H192V264M195 264h3v3H195V264M204 264h3v3H204V264M207 264h3v3H207V264M213 264h3v3H213V264M216 264h3v3H216V264M222 264h3v3H222V264M228 264h3v3H228V264M237 264h3v3H237V264M243 264h3v3H243V264M246 264h3v3H246V264M252 264h3v3H252V264M255 264h3v3H255V264M258 264h3v3H258V264M261 264h3v3H261V264M264 264h3v3H264V264M267 264h3v3H267V264M273 264h3v3H273V264M12 267h3v3H12V267M18 267h3v3H18V267M21 267h3v3H21V267M24 267h3v3H24V267M30 267h3v3H30V267M39 267h3v3H39V267M42 267h3v3H42V267M54 267h3v3H54V267M57 267h3v3H57V267M63 267h3v3H63V267M69 267h3v3H69V267M81 267h3v3H81V267M84 267h3v3H84V267M87 267h3v3H87V267M93 267h3v3H93V267M96 267h3v3H96V267M105 267h3v3H105V267M114 267h3v3H114V267M117 267h3v3H117V267M120 267h3v3H120V267M144 267h3v3H144V267M150 267h3v3H150V267M153 267h3v3H153V267M156 267h3v3H156V267M159 267h3v3H159V267M165 267h3v3H165V267M168 267h3v3H168V267M174 267h3v3H174V267M177 267h3v3H177V267M180 267h3v3H180V267M186 267h3v3H186V267M204 267h3v3H204V267M210 267h3v3H210V267M216 267h3v3H216V267M219 267h3v3H219V267M225 267h3v3H225V267M237 267h3v3H237V267M249 267h3v3H249V267M252 267h3v3H252V267M258 267h3v3H258V267M261 267h3v3H261V267M264 267h3v3H264V267M267 267h3v3H267V267M270 267h3v3H270V267M12 270h3v3H12V270M18 270h3v3H18V270M21 270h3v3H21V270M24 270h3v3H24V270M30 270h3v3H30V270M39 270h3v3H39V270M48 270h3v3H48V270M51 270h3v3H51V270M57 270h3v3H57V270M69 270h3v3H69V270M72 270h3v3H72V270M90 270h3v3H90V270M93 270h3v3H93V270M102 270h3v3H102V270M105 270h3v3H105V270M111 270h3v3H111V270M117 270h3v3H117V270M120 270h3v3H120V270M129 270h3v3H129V270M138 270h3v3H138V270M147 270h3v3H147V270M153 270h3v3H153V270M159 270h3v3H159V270M165 270h3v3H165V270M180 270h3v3H180V270M186 270h3v3H186V270M189 270h3v3H189V270M192 270h3v3H192V270M195 270h3v3H195V270M207 270h3v3H207V270M210 270h3v3H210V270M213 270h3v3H213V270M219 270h3v3H219V270M222 270h3v3H222V270M228 270h3v3H228V270M231 270h3v3H231V270M234 270h3v3H234V270M237 270h3v3H237V270M240 270h3v3H240V270M243 270h3v3H243V270M252 270h3v3H252V270M255 270h3v3H255V270M258 270h3v3H258V270M273 270h3v3H273V270M276 270h3v3H276V270M12 273h3v3H12V273M30 273h3v3H30V273M42 273h3v3H42V273M51 273h3v3H51V273M54 273h3v3H54V273M57 273h3v3H57V273M60 273h3v3H60V273M66 273h3v3H66V273M72 273h3v3H72V273M75 273h3v3H75V273M81 273h3v3H81V273M84 273h3v3H84V273M90 273h3v3H90V273M93 273h3v3H93V273M105 273h3v3H105V273M111 273h3v3H111V273M114 273h3v3H114V273M117 273h3v3H117V273M120 273h3v3H120V273M126 273h3v3H126V273M129 273h3v3H129V273M135 273h3v3H135V273M144 273h3v3H144V273M153 273h3v3H153V273M165 273h3v3H165V273M168 273h3v3H168V273M171 273h3v3H171V273M174 273h3v3H174V273M180 273h3v3H180V273M189 273h3v3H189V273M195 273h3v3H195V273M207 273h3v3H207V273M210 273h3v3H210V273M219 273h3v3H219V273M228 273h3v3H228V273M234 273h3v3H234V273M240 273h3v3H240V273M243 273h3v3H243V273M249 273h3v3H249V273M255 273h3v3H255V273M261 273h3v3H261V273M273 273h3v3H273V273M276 273h3v3H276V273M12 276h3v3H12V276M15 276h3v3H15V276M18 276h3v3H18V276M21 276h3v3H21V276M24 276h3v3H24V276M27 276h3v3H27V276M30 276h3v3H30V276M36 276h3v3H36V276M42 276h3v3H42V276M48 276h3v3H48V276M57 276h3v3H57V276M60 276h3v3H60V276M63 276h3v3H63V276M66 276h3v3H66V276M72 276h3v3H72V276M84 276h3v3H84V276M87 276h3v3H87V276M93 276h3v3H93V276M96 276h3v3H96V276M99 276h3v3H99V276M102 276h3v3H102V276M108 276h3v3H108V276M111 276h3v3H111V276M126 276h3v3H126V276M129 276h3v3H129V276M132 276h3v3H132V276M135 276h3v3H135V276M138 276h3v3H138V276M141 276h3v3H141V276M147 276h3v3H147V276M156 276h3v3H156V276M159 276h3v3H159V276M162 276h3v3H162V276M171 276h3v3H171V276M189 276h3v3H189V276M192 276h3v3H192V276M201 276h3v3H201V276M207 276h3v3H207V276M213 276h3v3H213V276M231 276h3v3H231V276M234 276h3v3H234V276M240 276h3v3H240V276M249 276h3v3H249V276M252 276h3v3H252V276M255 276h3v3H255V276M258 276h3v3H258V276M261 276h3v3H261V276M267 276h3v3H267V276M270 276h3v3H270V276M273 276h3v3H273V276"/></svg>